G04 #@! TF.FileFunction,Copper,L1,Top,Signal*
%FSLAX46Y46*%
G04 Gerber Fmt 4.6, Leading zero omitted, Abs format (unit mm)*
G04 Created by KiCad (PCBNEW 4.0.1-3.201512221402+6198~38~ubuntu14.04.1-stable) date Die 02 Feb 2016 12:25:03 CET*
%MOMM*%
G01*
G04 APERTURE LIST*
%ADD10C,0.100000*%
%ADD11C,0.600000*%
%ADD12R,1.200000X0.900000*%
%ADD13R,0.900000X1.200000*%
%ADD14R,1.000000X2.600000*%
%ADD15R,1.000000X3.300000*%
%ADD16R,3.300000X1.000000*%
%ADD17R,2.600000X1.000000*%
%ADD18R,1.500000X1.300000*%
%ADD19R,5.080000X2.290000*%
%ADD20R,5.080000X2.415000*%
%ADD21C,0.970000*%
%ADD22R,0.970000X0.460000*%
%ADD23C,2.700000*%
%ADD24C,0.250000*%
%ADD25C,0.254000*%
G04 APERTURE END LIST*
D10*
D11*
X63750000Y-98750000D03*
X63750000Y-100250000D03*
X63750000Y-101750000D03*
X63750000Y-103250000D03*
X62250000Y-103250000D03*
X60750000Y-103250000D03*
X59250000Y-103250000D03*
X57750000Y-103250000D03*
X52000000Y-103250000D03*
X46000000Y-103250000D03*
X40000000Y-103250000D03*
X34250000Y-103250000D03*
X32750000Y-103250000D03*
X31250000Y-103250000D03*
X29750000Y-103250000D03*
X28250000Y-103250000D03*
X28250000Y-101750000D03*
X28250000Y-100250000D03*
X28250000Y-98750000D03*
X63750000Y-85250000D03*
X63750000Y-83750000D03*
X63750000Y-82250000D03*
X63750000Y-80750000D03*
X62250000Y-80750000D03*
X60750000Y-80750000D03*
X59250000Y-80750000D03*
X57750000Y-80750000D03*
X52000000Y-80750000D03*
X46000000Y-80750000D03*
X40000000Y-80750000D03*
X34250000Y-80750000D03*
X32750000Y-80750000D03*
X31250000Y-80750000D03*
X29750000Y-80750000D03*
X28250000Y-85250000D03*
X28250000Y-83750000D03*
X28250000Y-82250000D03*
D12*
X40000000Y-91200000D03*
X37800000Y-91200000D03*
X40000000Y-93000000D03*
X37800000Y-93000000D03*
D13*
X41250000Y-91100000D03*
X41250000Y-88900000D03*
X41250000Y-95300000D03*
X41250000Y-93100000D03*
D12*
X44750000Y-91200000D03*
X42550000Y-91200000D03*
X44750000Y-93000000D03*
X42550000Y-93000000D03*
D13*
X46000000Y-91100000D03*
X46000000Y-88900000D03*
X46000000Y-95300000D03*
X46000000Y-93100000D03*
D12*
X49450000Y-91200000D03*
X47250000Y-91200000D03*
X49450000Y-93000000D03*
X47250000Y-93000000D03*
D13*
X50750000Y-91100000D03*
X50750000Y-88900000D03*
X50750000Y-95300000D03*
X50750000Y-93100000D03*
D14*
X56250000Y-95250000D03*
D15*
X56250000Y-82900000D03*
D14*
X56250000Y-88750000D03*
D15*
X56250000Y-101100000D03*
D16*
X55100000Y-102250000D03*
D17*
X49250000Y-102250000D03*
X49250000Y-81750000D03*
D16*
X55000000Y-81750000D03*
D17*
X42750000Y-81750000D03*
X42750000Y-102250000D03*
D16*
X36900000Y-102250000D03*
X36900000Y-81750000D03*
D15*
X35750000Y-82900000D03*
D14*
X35750000Y-88750000D03*
X35750000Y-95250000D03*
D15*
X35750000Y-101100000D03*
D12*
X54150000Y-91200000D03*
X51950000Y-91200000D03*
X54150000Y-93000000D03*
X51950000Y-93000000D03*
D18*
X50150000Y-85000000D03*
X52850000Y-85000000D03*
X46650000Y-85000000D03*
X49350000Y-85000000D03*
X43150000Y-85000000D03*
X45850000Y-85000000D03*
X39650000Y-85000000D03*
X42350000Y-85000000D03*
X50150000Y-99000000D03*
X52850000Y-99000000D03*
X46800000Y-99000000D03*
X49500000Y-99000000D03*
X43300000Y-99000000D03*
X46000000Y-99000000D03*
X39650000Y-99000000D03*
X42350000Y-99000000D03*
D11*
X28250000Y-80750000D03*
D19*
X30400000Y-92000000D03*
D20*
X30400000Y-96382500D03*
X30400000Y-87617500D03*
D21*
X33830000Y-87617500D03*
X33785000Y-96425000D03*
D22*
X33085000Y-87575000D03*
X33085000Y-96425000D03*
D19*
X61600000Y-92100000D03*
D20*
X61600000Y-87717500D03*
X61600000Y-96482500D03*
D21*
X58170000Y-96482500D03*
X58215000Y-87675000D03*
D22*
X58915000Y-96525000D03*
X58915000Y-87675000D03*
D11*
X42750000Y-91500000D03*
X39650000Y-92750000D03*
X47500000Y-91500000D03*
X44450000Y-92750000D03*
X52250000Y-91500000D03*
X49100000Y-92750000D03*
X50150000Y-85000000D03*
X53750000Y-85000000D03*
X45850000Y-85000000D03*
X42350000Y-85000000D03*
X38750000Y-85000000D03*
X50150000Y-99000000D03*
X53750000Y-99000000D03*
X46800000Y-99000000D03*
X42350000Y-99000000D03*
X38750000Y-99000000D03*
D23*
X30400000Y-92000000D02*
X35750000Y-92000000D01*
D24*
X56250000Y-88750000D02*
X56250000Y-88250000D01*
D23*
X58810000Y-92100000D02*
X55500000Y-92100000D01*
X61600000Y-92100000D02*
X58810000Y-92100000D01*
D24*
X42550000Y-91200000D02*
X42550000Y-91750000D01*
X42550000Y-91750000D02*
X42900000Y-92100000D01*
X40000000Y-91200000D02*
X40000000Y-91750000D01*
X40000000Y-91750000D02*
X39650000Y-92100000D01*
X47250000Y-91200000D02*
X47250000Y-91600000D01*
X47250000Y-91600000D02*
X47750000Y-92100000D01*
X44750000Y-91200000D02*
X44750000Y-91700000D01*
X44750000Y-91700000D02*
X44350000Y-92100000D01*
X51950000Y-93000000D02*
X51950000Y-92400000D01*
X51950000Y-92400000D02*
X52250000Y-92100000D01*
X49450000Y-91200000D02*
X49450000Y-91750000D01*
X49450000Y-91750000D02*
X49100000Y-92100000D01*
X49350000Y-85000000D02*
X50150000Y-85000000D01*
X52850000Y-85000000D02*
X53750000Y-85000000D01*
X46650000Y-85000000D02*
X45850000Y-85000000D01*
X39650000Y-85000000D02*
X38750000Y-85000000D01*
X49500000Y-99000000D02*
X50150000Y-99000000D01*
X52850000Y-99000000D02*
X53750000Y-99000000D01*
X46000000Y-99000000D02*
X46800000Y-99000000D01*
X43300000Y-99000000D02*
X42350000Y-99000000D01*
X39650000Y-99000000D02*
X38750000Y-99000000D01*
D25*
G36*
X38473000Y-93523000D02*
X37127000Y-93523000D01*
X37127000Y-93350000D01*
X37116994Y-93300590D01*
X37088553Y-93258965D01*
X37046159Y-93231685D01*
X37000000Y-93223000D01*
X35627000Y-93223000D01*
X35627000Y-90777000D01*
X37000000Y-90777000D01*
X37049410Y-90766994D01*
X37091035Y-90738553D01*
X37118315Y-90696159D01*
X37121920Y-90677000D01*
X38473000Y-90677000D01*
X38473000Y-93523000D01*
X38473000Y-93523000D01*
G37*
X38473000Y-93523000D02*
X37127000Y-93523000D01*
X37127000Y-93350000D01*
X37116994Y-93300590D01*
X37088553Y-93258965D01*
X37046159Y-93231685D01*
X37000000Y-93223000D01*
X35627000Y-93223000D01*
X35627000Y-90777000D01*
X37000000Y-90777000D01*
X37049410Y-90766994D01*
X37091035Y-90738553D01*
X37118315Y-90696159D01*
X37121920Y-90677000D01*
X38473000Y-90677000D01*
X38473000Y-93523000D01*
G36*
X35873000Y-89873000D02*
X35288452Y-89873000D01*
X33070447Y-88394330D01*
X33000000Y-88373000D01*
X27956000Y-88373000D01*
X27956000Y-85627000D01*
X35873000Y-85627000D01*
X35873000Y-89873000D01*
X35873000Y-89873000D01*
G37*
X35873000Y-89873000D02*
X35288452Y-89873000D01*
X33070447Y-88394330D01*
X33000000Y-88373000D01*
X27956000Y-88373000D01*
X27956000Y-85627000D01*
X35873000Y-85627000D01*
X35873000Y-89873000D01*
G36*
X54823000Y-90750000D02*
X54833006Y-90799410D01*
X54861447Y-90841035D01*
X54903841Y-90868315D01*
X54950000Y-90877000D01*
X56873000Y-90877000D01*
X56873000Y-93323000D01*
X56850936Y-93323000D01*
X56750000Y-93302560D01*
X55750000Y-93302560D01*
X55641371Y-93323000D01*
X54975000Y-93323000D01*
X54925590Y-93333006D01*
X54883965Y-93361447D01*
X54856685Y-93403841D01*
X54848000Y-93450000D01*
X54848000Y-93523000D01*
X53477000Y-93523000D01*
X53477000Y-90677000D01*
X54823000Y-90677000D01*
X54823000Y-90750000D01*
X54823000Y-90750000D01*
G37*
X54823000Y-90750000D02*
X54833006Y-90799410D01*
X54861447Y-90841035D01*
X54903841Y-90868315D01*
X54950000Y-90877000D01*
X56873000Y-90877000D01*
X56873000Y-93323000D01*
X56850936Y-93323000D01*
X56750000Y-93302560D01*
X55750000Y-93302560D01*
X55641371Y-93323000D01*
X54975000Y-93323000D01*
X54925590Y-93333006D01*
X54883965Y-93361447D01*
X54856685Y-93403841D01*
X54848000Y-93450000D01*
X54848000Y-93523000D01*
X53477000Y-93523000D01*
X53477000Y-90677000D01*
X54823000Y-90677000D01*
X54823000Y-90750000D01*
G36*
X35873000Y-97664016D02*
X33475541Y-98623000D01*
X27956000Y-98623000D01*
X27956000Y-95627000D01*
X33000000Y-95627000D01*
X33070447Y-95605670D01*
X35288452Y-94127000D01*
X35873000Y-94127000D01*
X35873000Y-97664016D01*
X35873000Y-97664016D01*
G37*
X35873000Y-97664016D02*
X33475541Y-98623000D01*
X27956000Y-98623000D01*
X27956000Y-95627000D01*
X33000000Y-95627000D01*
X33070447Y-95605670D01*
X35288452Y-94127000D01*
X35873000Y-94127000D01*
X35873000Y-97664016D01*
G36*
X58925302Y-95852709D02*
X58971147Y-95873679D01*
X59000000Y-95877000D01*
X64044000Y-95877000D01*
X64044000Y-98123000D01*
X56377000Y-98123000D01*
X56377000Y-94085000D01*
X56494703Y-94085000D01*
X58925302Y-95852709D01*
X58925302Y-95852709D01*
G37*
X58925302Y-95852709D02*
X58971147Y-95873679D01*
X59000000Y-95877000D01*
X64044000Y-95877000D01*
X64044000Y-98123000D01*
X56377000Y-98123000D01*
X56377000Y-94085000D01*
X56494703Y-94085000D01*
X58925302Y-95852709D01*
G36*
X64044000Y-88673000D02*
X58650000Y-88673000D01*
X58584326Y-88691299D01*
X56377000Y-90024892D01*
X56377000Y-85627000D01*
X64044000Y-85627000D01*
X64044000Y-88673000D01*
X64044000Y-88673000D01*
G37*
X64044000Y-88673000D02*
X58650000Y-88673000D01*
X58584326Y-88691299D01*
X56377000Y-90024892D01*
X56377000Y-85627000D01*
X64044000Y-85627000D01*
X64044000Y-88673000D01*
G36*
X47873000Y-93573000D02*
X44127000Y-93573000D01*
X44127000Y-90627000D01*
X47873000Y-90627000D01*
X47873000Y-93573000D01*
X47873000Y-93573000D01*
G37*
X47873000Y-93573000D02*
X44127000Y-93573000D01*
X44127000Y-90627000D01*
X47873000Y-90627000D01*
X47873000Y-93573000D01*
G36*
X43173000Y-93573000D02*
X39377000Y-93573000D01*
X39377000Y-90627000D01*
X43173000Y-90627000D01*
X43173000Y-93573000D01*
X43173000Y-93573000D01*
G37*
X43173000Y-93573000D02*
X39377000Y-93573000D01*
X39377000Y-90627000D01*
X43173000Y-90627000D01*
X43173000Y-93573000D01*
G36*
X52573000Y-93573000D02*
X48827000Y-93573000D01*
X48827000Y-90627000D01*
X52573000Y-90627000D01*
X52573000Y-93573000D01*
X52573000Y-93573000D01*
G37*
X52573000Y-93573000D02*
X48827000Y-93573000D01*
X48827000Y-90627000D01*
X52573000Y-90627000D01*
X52573000Y-93573000D01*
G36*
X39002949Y-94284971D02*
X39250000Y-94335000D01*
X40266975Y-94335000D01*
X40261673Y-94340302D01*
X40165000Y-94573691D01*
X40165000Y-95014250D01*
X40323750Y-95173000D01*
X41123000Y-95173000D01*
X41123000Y-95153000D01*
X41377000Y-95153000D01*
X41377000Y-95173000D01*
X42176250Y-95173000D01*
X42335000Y-95014250D01*
X42335000Y-94573691D01*
X42238327Y-94340302D01*
X42233025Y-94335000D01*
X43300000Y-94335000D01*
X43530795Y-94291573D01*
X43650179Y-94214751D01*
X43752949Y-94284971D01*
X44000000Y-94335000D01*
X45016975Y-94335000D01*
X45011673Y-94340302D01*
X44915000Y-94573691D01*
X44915000Y-95014250D01*
X45073750Y-95173000D01*
X45873000Y-95173000D01*
X45873000Y-95153000D01*
X46127000Y-95153000D01*
X46127000Y-95173000D01*
X46926250Y-95173000D01*
X47085000Y-95014250D01*
X47085000Y-94573691D01*
X46988327Y-94340302D01*
X46983025Y-94335000D01*
X48000000Y-94335000D01*
X48230795Y-94291573D01*
X48350179Y-94214751D01*
X48452949Y-94284971D01*
X48700000Y-94335000D01*
X49766975Y-94335000D01*
X49761673Y-94340302D01*
X49665000Y-94573691D01*
X49665000Y-95014250D01*
X49823750Y-95173000D01*
X50623000Y-95173000D01*
X50623000Y-95153000D01*
X50877000Y-95153000D01*
X50877000Y-95173000D01*
X51676250Y-95173000D01*
X51835000Y-95014250D01*
X51835000Y-94573691D01*
X51738327Y-94340302D01*
X51733025Y-94335000D01*
X52700000Y-94335000D01*
X52930795Y-94291573D01*
X53062116Y-94207071D01*
X53102949Y-94234971D01*
X53350000Y-94285000D01*
X54975000Y-94285000D01*
X55115000Y-94258657D01*
X55115000Y-94964250D01*
X55273750Y-95123000D01*
X56123000Y-95123000D01*
X56123000Y-95377000D01*
X55273750Y-95377000D01*
X55115000Y-95535750D01*
X55115000Y-96676310D01*
X55211673Y-96909699D01*
X55390302Y-97088327D01*
X55623691Y-97185000D01*
X55964250Y-97185000D01*
X56122998Y-97026252D01*
X56122998Y-97185000D01*
X56123000Y-97185000D01*
X56123000Y-98250000D01*
X56131685Y-98296159D01*
X56158965Y-98338553D01*
X56200590Y-98366994D01*
X56250000Y-98377000D01*
X64044000Y-98377000D01*
X64044000Y-103544000D01*
X27956000Y-103544000D01*
X27956000Y-101385750D01*
X34615000Y-101385750D01*
X34615000Y-102876310D01*
X34711673Y-103109699D01*
X34890302Y-103288327D01*
X35123691Y-103385000D01*
X36614250Y-103385000D01*
X36773000Y-103226250D01*
X36773000Y-103125026D01*
X36788327Y-103109699D01*
X36885000Y-102876310D01*
X36885000Y-102377000D01*
X37027000Y-102377000D01*
X37027000Y-103226250D01*
X37185750Y-103385000D01*
X38676309Y-103385000D01*
X38909698Y-103288327D01*
X39088327Y-103109699D01*
X39185000Y-102876310D01*
X39185000Y-102535750D01*
X40815000Y-102535750D01*
X40815000Y-102876310D01*
X40911673Y-103109699D01*
X41090302Y-103288327D01*
X41323691Y-103385000D01*
X42464250Y-103385000D01*
X42623000Y-103226250D01*
X42623000Y-102377000D01*
X42877000Y-102377000D01*
X42877000Y-103226250D01*
X43035750Y-103385000D01*
X44176309Y-103385000D01*
X44409698Y-103288327D01*
X44588327Y-103109699D01*
X44685000Y-102876310D01*
X44685000Y-102535750D01*
X47315000Y-102535750D01*
X47315000Y-102876310D01*
X47411673Y-103109699D01*
X47590302Y-103288327D01*
X47823691Y-103385000D01*
X48964250Y-103385000D01*
X49123000Y-103226250D01*
X49123000Y-102377000D01*
X49377000Y-102377000D01*
X49377000Y-103226250D01*
X49535750Y-103385000D01*
X50676309Y-103385000D01*
X50909698Y-103288327D01*
X51088327Y-103109699D01*
X51185000Y-102876310D01*
X51185000Y-102535750D01*
X52815000Y-102535750D01*
X52815000Y-102876310D01*
X52911673Y-103109699D01*
X53090302Y-103288327D01*
X53323691Y-103385000D01*
X54814250Y-103385000D01*
X54973000Y-103226250D01*
X54973000Y-102377000D01*
X52973750Y-102377000D01*
X52815000Y-102535750D01*
X51185000Y-102535750D01*
X51026250Y-102377000D01*
X49377000Y-102377000D01*
X49123000Y-102377000D01*
X47473750Y-102377000D01*
X47315000Y-102535750D01*
X44685000Y-102535750D01*
X44526250Y-102377000D01*
X42877000Y-102377000D01*
X42623000Y-102377000D01*
X40973750Y-102377000D01*
X40815000Y-102535750D01*
X39185000Y-102535750D01*
X39026250Y-102377000D01*
X37027000Y-102377000D01*
X36885000Y-102377000D01*
X36885000Y-101385750D01*
X36773000Y-101273750D01*
X37027000Y-101273750D01*
X37027000Y-102123000D01*
X39026250Y-102123000D01*
X39185000Y-101964250D01*
X39185000Y-101623690D01*
X40815000Y-101623690D01*
X40815000Y-101964250D01*
X40973750Y-102123000D01*
X42623000Y-102123000D01*
X42623000Y-101273750D01*
X42877000Y-101273750D01*
X42877000Y-102123000D01*
X44526250Y-102123000D01*
X44685000Y-101964250D01*
X44685000Y-101623690D01*
X47315000Y-101623690D01*
X47315000Y-101964250D01*
X47473750Y-102123000D01*
X49123000Y-102123000D01*
X49123000Y-101273750D01*
X49377000Y-101273750D01*
X49377000Y-102123000D01*
X51026250Y-102123000D01*
X51185000Y-101964250D01*
X51185000Y-101623690D01*
X52815000Y-101623690D01*
X52815000Y-101964250D01*
X52973750Y-102123000D01*
X54973000Y-102123000D01*
X54973000Y-101385750D01*
X55115000Y-101385750D01*
X55115000Y-102876310D01*
X55211673Y-103109699D01*
X55227000Y-103125026D01*
X55227000Y-103226250D01*
X55385750Y-103385000D01*
X56876309Y-103385000D01*
X57109698Y-103288327D01*
X57288327Y-103109699D01*
X57385000Y-102876310D01*
X57385000Y-101385750D01*
X57226250Y-101227000D01*
X57125025Y-101227000D01*
X57109698Y-101211673D01*
X56876309Y-101115000D01*
X55385750Y-101115000D01*
X55115000Y-101385750D01*
X54973000Y-101385750D01*
X54973000Y-101273750D01*
X54814250Y-101115000D01*
X53323691Y-101115000D01*
X53090302Y-101211673D01*
X52911673Y-101390301D01*
X52815000Y-101623690D01*
X51185000Y-101623690D01*
X51088327Y-101390301D01*
X50909698Y-101211673D01*
X50676309Y-101115000D01*
X49535750Y-101115000D01*
X49377000Y-101273750D01*
X49123000Y-101273750D01*
X48964250Y-101115000D01*
X47823691Y-101115000D01*
X47590302Y-101211673D01*
X47411673Y-101390301D01*
X47315000Y-101623690D01*
X44685000Y-101623690D01*
X44588327Y-101390301D01*
X44409698Y-101211673D01*
X44176309Y-101115000D01*
X43035750Y-101115000D01*
X42877000Y-101273750D01*
X42623000Y-101273750D01*
X42464250Y-101115000D01*
X41323691Y-101115000D01*
X41090302Y-101211673D01*
X40911673Y-101390301D01*
X40815000Y-101623690D01*
X39185000Y-101623690D01*
X39088327Y-101390301D01*
X38909698Y-101211673D01*
X38676309Y-101115000D01*
X37185750Y-101115000D01*
X37027000Y-101273750D01*
X36773000Y-101273750D01*
X36614250Y-101115000D01*
X35123691Y-101115000D01*
X34890302Y-101211673D01*
X34874975Y-101227000D01*
X34773750Y-101227000D01*
X34615000Y-101385750D01*
X27956000Y-101385750D01*
X27956000Y-99323690D01*
X34615000Y-99323690D01*
X34615000Y-100814250D01*
X34773750Y-100973000D01*
X35623000Y-100973000D01*
X35623000Y-98973750D01*
X35877000Y-98973750D01*
X35877000Y-100973000D01*
X36726250Y-100973000D01*
X36885000Y-100814250D01*
X36885000Y-99323690D01*
X36806787Y-99134865D01*
X38068882Y-99134865D01*
X38172339Y-99385252D01*
X38363741Y-99576987D01*
X38511536Y-99638357D01*
X38511536Y-99650000D01*
X38538103Y-99791190D01*
X38621546Y-99920865D01*
X38748866Y-100007859D01*
X38900000Y-100038464D01*
X40400000Y-100038464D01*
X40541190Y-100011897D01*
X40670865Y-99928454D01*
X40757859Y-99801134D01*
X40788464Y-99650000D01*
X40788464Y-98350000D01*
X41211536Y-98350000D01*
X41211536Y-99650000D01*
X41238103Y-99791190D01*
X41321546Y-99920865D01*
X41448866Y-100007859D01*
X41600000Y-100038464D01*
X44050000Y-100038464D01*
X44191190Y-100011897D01*
X44320865Y-99928454D01*
X44407859Y-99801134D01*
X44438464Y-99650000D01*
X44438464Y-98350000D01*
X44861536Y-98350000D01*
X44861536Y-99650000D01*
X44888103Y-99791190D01*
X44971546Y-99920865D01*
X45098866Y-100007859D01*
X45250000Y-100038464D01*
X47550000Y-100038464D01*
X47691190Y-100011897D01*
X47820865Y-99928454D01*
X47907859Y-99801134D01*
X47938464Y-99650000D01*
X47938464Y-98350000D01*
X48361536Y-98350000D01*
X48361536Y-99650000D01*
X48388103Y-99791190D01*
X48471546Y-99920865D01*
X48598866Y-100007859D01*
X48750000Y-100038464D01*
X50900000Y-100038464D01*
X51041190Y-100011897D01*
X51170865Y-99928454D01*
X51257859Y-99801134D01*
X51288464Y-99650000D01*
X51288464Y-98350000D01*
X51711536Y-98350000D01*
X51711536Y-99650000D01*
X51738103Y-99791190D01*
X51821546Y-99920865D01*
X51948866Y-100007859D01*
X52100000Y-100038464D01*
X53600000Y-100038464D01*
X53741190Y-100011897D01*
X53870865Y-99928454D01*
X53957859Y-99801134D01*
X53988464Y-99650000D01*
X53988464Y-99638312D01*
X54135252Y-99577661D01*
X54326987Y-99386259D01*
X54352968Y-99323690D01*
X55115000Y-99323690D01*
X55115000Y-100814250D01*
X55273750Y-100973000D01*
X56123000Y-100973000D01*
X56123000Y-98973750D01*
X56377000Y-98973750D01*
X56377000Y-100973000D01*
X57226250Y-100973000D01*
X57385000Y-100814250D01*
X57385000Y-99323690D01*
X57288327Y-99090301D01*
X57109698Y-98911673D01*
X56876309Y-98815000D01*
X56535750Y-98815000D01*
X56377000Y-98973750D01*
X56123000Y-98973750D01*
X55964250Y-98815000D01*
X55623691Y-98815000D01*
X55390302Y-98911673D01*
X55211673Y-99090301D01*
X55115000Y-99323690D01*
X54352968Y-99323690D01*
X54430882Y-99136054D01*
X54431118Y-98865135D01*
X54327661Y-98614748D01*
X54136259Y-98423013D01*
X53988464Y-98361643D01*
X53988464Y-98350000D01*
X53961897Y-98208810D01*
X53878454Y-98079135D01*
X53751134Y-97992141D01*
X53600000Y-97961536D01*
X52100000Y-97961536D01*
X51958810Y-97988103D01*
X51829135Y-98071546D01*
X51742141Y-98198866D01*
X51711536Y-98350000D01*
X51288464Y-98350000D01*
X51261897Y-98208810D01*
X51178454Y-98079135D01*
X51051134Y-97992141D01*
X50900000Y-97961536D01*
X48750000Y-97961536D01*
X48608810Y-97988103D01*
X48479135Y-98071546D01*
X48392141Y-98198866D01*
X48361536Y-98350000D01*
X47938464Y-98350000D01*
X47911897Y-98208810D01*
X47828454Y-98079135D01*
X47701134Y-97992141D01*
X47550000Y-97961536D01*
X45250000Y-97961536D01*
X45108810Y-97988103D01*
X44979135Y-98071546D01*
X44892141Y-98198866D01*
X44861536Y-98350000D01*
X44438464Y-98350000D01*
X44411897Y-98208810D01*
X44328454Y-98079135D01*
X44201134Y-97992141D01*
X44050000Y-97961536D01*
X41600000Y-97961536D01*
X41458810Y-97988103D01*
X41329135Y-98071546D01*
X41242141Y-98198866D01*
X41211536Y-98350000D01*
X40788464Y-98350000D01*
X40761897Y-98208810D01*
X40678454Y-98079135D01*
X40551134Y-97992141D01*
X40400000Y-97961536D01*
X38900000Y-97961536D01*
X38758810Y-97988103D01*
X38629135Y-98071546D01*
X38542141Y-98198866D01*
X38511536Y-98350000D01*
X38511536Y-98361688D01*
X38364748Y-98422339D01*
X38173013Y-98613741D01*
X38069118Y-98863946D01*
X38068882Y-99134865D01*
X36806787Y-99134865D01*
X36788327Y-99090301D01*
X36609698Y-98911673D01*
X36376309Y-98815000D01*
X36035750Y-98815000D01*
X35877000Y-98973750D01*
X35623000Y-98973750D01*
X35464250Y-98815000D01*
X35123691Y-98815000D01*
X34890302Y-98911673D01*
X34711673Y-99090301D01*
X34615000Y-99323690D01*
X27956000Y-99323690D01*
X27956000Y-98877000D01*
X33500000Y-98877000D01*
X33547167Y-98867917D01*
X36047167Y-97867917D01*
X36088553Y-97841035D01*
X36116994Y-97799410D01*
X36127000Y-97750000D01*
X36127000Y-97185000D01*
X36376309Y-97185000D01*
X36609698Y-97088327D01*
X36788327Y-96909699D01*
X36885000Y-96676310D01*
X36885000Y-95585750D01*
X40165000Y-95585750D01*
X40165000Y-96026309D01*
X40261673Y-96259698D01*
X40440301Y-96438327D01*
X40673690Y-96535000D01*
X40964250Y-96535000D01*
X41123000Y-96376250D01*
X41123000Y-95427000D01*
X41377000Y-95427000D01*
X41377000Y-96376250D01*
X41535750Y-96535000D01*
X41826310Y-96535000D01*
X42059699Y-96438327D01*
X42238327Y-96259698D01*
X42335000Y-96026309D01*
X42335000Y-95585750D01*
X44915000Y-95585750D01*
X44915000Y-96026309D01*
X45011673Y-96259698D01*
X45190301Y-96438327D01*
X45423690Y-96535000D01*
X45714250Y-96535000D01*
X45873000Y-96376250D01*
X45873000Y-95427000D01*
X46127000Y-95427000D01*
X46127000Y-96376250D01*
X46285750Y-96535000D01*
X46576310Y-96535000D01*
X46809699Y-96438327D01*
X46988327Y-96259698D01*
X47085000Y-96026309D01*
X47085000Y-95585750D01*
X49665000Y-95585750D01*
X49665000Y-96026309D01*
X49761673Y-96259698D01*
X49940301Y-96438327D01*
X50173690Y-96535000D01*
X50464250Y-96535000D01*
X50623000Y-96376250D01*
X50623000Y-95427000D01*
X50877000Y-95427000D01*
X50877000Y-96376250D01*
X51035750Y-96535000D01*
X51326310Y-96535000D01*
X51559699Y-96438327D01*
X51738327Y-96259698D01*
X51835000Y-96026309D01*
X51835000Y-95585750D01*
X51676250Y-95427000D01*
X50877000Y-95427000D01*
X50623000Y-95427000D01*
X49823750Y-95427000D01*
X49665000Y-95585750D01*
X47085000Y-95585750D01*
X46926250Y-95427000D01*
X46127000Y-95427000D01*
X45873000Y-95427000D01*
X45073750Y-95427000D01*
X44915000Y-95585750D01*
X42335000Y-95585750D01*
X42176250Y-95427000D01*
X41377000Y-95427000D01*
X41123000Y-95427000D01*
X40323750Y-95427000D01*
X40165000Y-95585750D01*
X36885000Y-95585750D01*
X36885000Y-95535750D01*
X36726250Y-95377000D01*
X36127000Y-95377000D01*
X36127000Y-95123000D01*
X36726250Y-95123000D01*
X36885000Y-94964250D01*
X36885000Y-94261712D01*
X37000000Y-94285000D01*
X38600000Y-94285000D01*
X38830795Y-94241573D01*
X38886744Y-94205571D01*
X39002949Y-94284971D01*
X39002949Y-94284971D01*
G37*
X39002949Y-94284971D02*
X39250000Y-94335000D01*
X40266975Y-94335000D01*
X40261673Y-94340302D01*
X40165000Y-94573691D01*
X40165000Y-95014250D01*
X40323750Y-95173000D01*
X41123000Y-95173000D01*
X41123000Y-95153000D01*
X41377000Y-95153000D01*
X41377000Y-95173000D01*
X42176250Y-95173000D01*
X42335000Y-95014250D01*
X42335000Y-94573691D01*
X42238327Y-94340302D01*
X42233025Y-94335000D01*
X43300000Y-94335000D01*
X43530795Y-94291573D01*
X43650179Y-94214751D01*
X43752949Y-94284971D01*
X44000000Y-94335000D01*
X45016975Y-94335000D01*
X45011673Y-94340302D01*
X44915000Y-94573691D01*
X44915000Y-95014250D01*
X45073750Y-95173000D01*
X45873000Y-95173000D01*
X45873000Y-95153000D01*
X46127000Y-95153000D01*
X46127000Y-95173000D01*
X46926250Y-95173000D01*
X47085000Y-95014250D01*
X47085000Y-94573691D01*
X46988327Y-94340302D01*
X46983025Y-94335000D01*
X48000000Y-94335000D01*
X48230795Y-94291573D01*
X48350179Y-94214751D01*
X48452949Y-94284971D01*
X48700000Y-94335000D01*
X49766975Y-94335000D01*
X49761673Y-94340302D01*
X49665000Y-94573691D01*
X49665000Y-95014250D01*
X49823750Y-95173000D01*
X50623000Y-95173000D01*
X50623000Y-95153000D01*
X50877000Y-95153000D01*
X50877000Y-95173000D01*
X51676250Y-95173000D01*
X51835000Y-95014250D01*
X51835000Y-94573691D01*
X51738327Y-94340302D01*
X51733025Y-94335000D01*
X52700000Y-94335000D01*
X52930795Y-94291573D01*
X53062116Y-94207071D01*
X53102949Y-94234971D01*
X53350000Y-94285000D01*
X54975000Y-94285000D01*
X55115000Y-94258657D01*
X55115000Y-94964250D01*
X55273750Y-95123000D01*
X56123000Y-95123000D01*
X56123000Y-95377000D01*
X55273750Y-95377000D01*
X55115000Y-95535750D01*
X55115000Y-96676310D01*
X55211673Y-96909699D01*
X55390302Y-97088327D01*
X55623691Y-97185000D01*
X55964250Y-97185000D01*
X56122998Y-97026252D01*
X56122998Y-97185000D01*
X56123000Y-97185000D01*
X56123000Y-98250000D01*
X56131685Y-98296159D01*
X56158965Y-98338553D01*
X56200590Y-98366994D01*
X56250000Y-98377000D01*
X64044000Y-98377000D01*
X64044000Y-103544000D01*
X27956000Y-103544000D01*
X27956000Y-101385750D01*
X34615000Y-101385750D01*
X34615000Y-102876310D01*
X34711673Y-103109699D01*
X34890302Y-103288327D01*
X35123691Y-103385000D01*
X36614250Y-103385000D01*
X36773000Y-103226250D01*
X36773000Y-103125026D01*
X36788327Y-103109699D01*
X36885000Y-102876310D01*
X36885000Y-102377000D01*
X37027000Y-102377000D01*
X37027000Y-103226250D01*
X37185750Y-103385000D01*
X38676309Y-103385000D01*
X38909698Y-103288327D01*
X39088327Y-103109699D01*
X39185000Y-102876310D01*
X39185000Y-102535750D01*
X40815000Y-102535750D01*
X40815000Y-102876310D01*
X40911673Y-103109699D01*
X41090302Y-103288327D01*
X41323691Y-103385000D01*
X42464250Y-103385000D01*
X42623000Y-103226250D01*
X42623000Y-102377000D01*
X42877000Y-102377000D01*
X42877000Y-103226250D01*
X43035750Y-103385000D01*
X44176309Y-103385000D01*
X44409698Y-103288327D01*
X44588327Y-103109699D01*
X44685000Y-102876310D01*
X44685000Y-102535750D01*
X47315000Y-102535750D01*
X47315000Y-102876310D01*
X47411673Y-103109699D01*
X47590302Y-103288327D01*
X47823691Y-103385000D01*
X48964250Y-103385000D01*
X49123000Y-103226250D01*
X49123000Y-102377000D01*
X49377000Y-102377000D01*
X49377000Y-103226250D01*
X49535750Y-103385000D01*
X50676309Y-103385000D01*
X50909698Y-103288327D01*
X51088327Y-103109699D01*
X51185000Y-102876310D01*
X51185000Y-102535750D01*
X52815000Y-102535750D01*
X52815000Y-102876310D01*
X52911673Y-103109699D01*
X53090302Y-103288327D01*
X53323691Y-103385000D01*
X54814250Y-103385000D01*
X54973000Y-103226250D01*
X54973000Y-102377000D01*
X52973750Y-102377000D01*
X52815000Y-102535750D01*
X51185000Y-102535750D01*
X51026250Y-102377000D01*
X49377000Y-102377000D01*
X49123000Y-102377000D01*
X47473750Y-102377000D01*
X47315000Y-102535750D01*
X44685000Y-102535750D01*
X44526250Y-102377000D01*
X42877000Y-102377000D01*
X42623000Y-102377000D01*
X40973750Y-102377000D01*
X40815000Y-102535750D01*
X39185000Y-102535750D01*
X39026250Y-102377000D01*
X37027000Y-102377000D01*
X36885000Y-102377000D01*
X36885000Y-101385750D01*
X36773000Y-101273750D01*
X37027000Y-101273750D01*
X37027000Y-102123000D01*
X39026250Y-102123000D01*
X39185000Y-101964250D01*
X39185000Y-101623690D01*
X40815000Y-101623690D01*
X40815000Y-101964250D01*
X40973750Y-102123000D01*
X42623000Y-102123000D01*
X42623000Y-101273750D01*
X42877000Y-101273750D01*
X42877000Y-102123000D01*
X44526250Y-102123000D01*
X44685000Y-101964250D01*
X44685000Y-101623690D01*
X47315000Y-101623690D01*
X47315000Y-101964250D01*
X47473750Y-102123000D01*
X49123000Y-102123000D01*
X49123000Y-101273750D01*
X49377000Y-101273750D01*
X49377000Y-102123000D01*
X51026250Y-102123000D01*
X51185000Y-101964250D01*
X51185000Y-101623690D01*
X52815000Y-101623690D01*
X52815000Y-101964250D01*
X52973750Y-102123000D01*
X54973000Y-102123000D01*
X54973000Y-101385750D01*
X55115000Y-101385750D01*
X55115000Y-102876310D01*
X55211673Y-103109699D01*
X55227000Y-103125026D01*
X55227000Y-103226250D01*
X55385750Y-103385000D01*
X56876309Y-103385000D01*
X57109698Y-103288327D01*
X57288327Y-103109699D01*
X57385000Y-102876310D01*
X57385000Y-101385750D01*
X57226250Y-101227000D01*
X57125025Y-101227000D01*
X57109698Y-101211673D01*
X56876309Y-101115000D01*
X55385750Y-101115000D01*
X55115000Y-101385750D01*
X54973000Y-101385750D01*
X54973000Y-101273750D01*
X54814250Y-101115000D01*
X53323691Y-101115000D01*
X53090302Y-101211673D01*
X52911673Y-101390301D01*
X52815000Y-101623690D01*
X51185000Y-101623690D01*
X51088327Y-101390301D01*
X50909698Y-101211673D01*
X50676309Y-101115000D01*
X49535750Y-101115000D01*
X49377000Y-101273750D01*
X49123000Y-101273750D01*
X48964250Y-101115000D01*
X47823691Y-101115000D01*
X47590302Y-101211673D01*
X47411673Y-101390301D01*
X47315000Y-101623690D01*
X44685000Y-101623690D01*
X44588327Y-101390301D01*
X44409698Y-101211673D01*
X44176309Y-101115000D01*
X43035750Y-101115000D01*
X42877000Y-101273750D01*
X42623000Y-101273750D01*
X42464250Y-101115000D01*
X41323691Y-101115000D01*
X41090302Y-101211673D01*
X40911673Y-101390301D01*
X40815000Y-101623690D01*
X39185000Y-101623690D01*
X39088327Y-101390301D01*
X38909698Y-101211673D01*
X38676309Y-101115000D01*
X37185750Y-101115000D01*
X37027000Y-101273750D01*
X36773000Y-101273750D01*
X36614250Y-101115000D01*
X35123691Y-101115000D01*
X34890302Y-101211673D01*
X34874975Y-101227000D01*
X34773750Y-101227000D01*
X34615000Y-101385750D01*
X27956000Y-101385750D01*
X27956000Y-99323690D01*
X34615000Y-99323690D01*
X34615000Y-100814250D01*
X34773750Y-100973000D01*
X35623000Y-100973000D01*
X35623000Y-98973750D01*
X35877000Y-98973750D01*
X35877000Y-100973000D01*
X36726250Y-100973000D01*
X36885000Y-100814250D01*
X36885000Y-99323690D01*
X36806787Y-99134865D01*
X38068882Y-99134865D01*
X38172339Y-99385252D01*
X38363741Y-99576987D01*
X38511536Y-99638357D01*
X38511536Y-99650000D01*
X38538103Y-99791190D01*
X38621546Y-99920865D01*
X38748866Y-100007859D01*
X38900000Y-100038464D01*
X40400000Y-100038464D01*
X40541190Y-100011897D01*
X40670865Y-99928454D01*
X40757859Y-99801134D01*
X40788464Y-99650000D01*
X40788464Y-98350000D01*
X41211536Y-98350000D01*
X41211536Y-99650000D01*
X41238103Y-99791190D01*
X41321546Y-99920865D01*
X41448866Y-100007859D01*
X41600000Y-100038464D01*
X44050000Y-100038464D01*
X44191190Y-100011897D01*
X44320865Y-99928454D01*
X44407859Y-99801134D01*
X44438464Y-99650000D01*
X44438464Y-98350000D01*
X44861536Y-98350000D01*
X44861536Y-99650000D01*
X44888103Y-99791190D01*
X44971546Y-99920865D01*
X45098866Y-100007859D01*
X45250000Y-100038464D01*
X47550000Y-100038464D01*
X47691190Y-100011897D01*
X47820865Y-99928454D01*
X47907859Y-99801134D01*
X47938464Y-99650000D01*
X47938464Y-98350000D01*
X48361536Y-98350000D01*
X48361536Y-99650000D01*
X48388103Y-99791190D01*
X48471546Y-99920865D01*
X48598866Y-100007859D01*
X48750000Y-100038464D01*
X50900000Y-100038464D01*
X51041190Y-100011897D01*
X51170865Y-99928454D01*
X51257859Y-99801134D01*
X51288464Y-99650000D01*
X51288464Y-98350000D01*
X51711536Y-98350000D01*
X51711536Y-99650000D01*
X51738103Y-99791190D01*
X51821546Y-99920865D01*
X51948866Y-100007859D01*
X52100000Y-100038464D01*
X53600000Y-100038464D01*
X53741190Y-100011897D01*
X53870865Y-99928454D01*
X53957859Y-99801134D01*
X53988464Y-99650000D01*
X53988464Y-99638312D01*
X54135252Y-99577661D01*
X54326987Y-99386259D01*
X54352968Y-99323690D01*
X55115000Y-99323690D01*
X55115000Y-100814250D01*
X55273750Y-100973000D01*
X56123000Y-100973000D01*
X56123000Y-98973750D01*
X56377000Y-98973750D01*
X56377000Y-100973000D01*
X57226250Y-100973000D01*
X57385000Y-100814250D01*
X57385000Y-99323690D01*
X57288327Y-99090301D01*
X57109698Y-98911673D01*
X56876309Y-98815000D01*
X56535750Y-98815000D01*
X56377000Y-98973750D01*
X56123000Y-98973750D01*
X55964250Y-98815000D01*
X55623691Y-98815000D01*
X55390302Y-98911673D01*
X55211673Y-99090301D01*
X55115000Y-99323690D01*
X54352968Y-99323690D01*
X54430882Y-99136054D01*
X54431118Y-98865135D01*
X54327661Y-98614748D01*
X54136259Y-98423013D01*
X53988464Y-98361643D01*
X53988464Y-98350000D01*
X53961897Y-98208810D01*
X53878454Y-98079135D01*
X53751134Y-97992141D01*
X53600000Y-97961536D01*
X52100000Y-97961536D01*
X51958810Y-97988103D01*
X51829135Y-98071546D01*
X51742141Y-98198866D01*
X51711536Y-98350000D01*
X51288464Y-98350000D01*
X51261897Y-98208810D01*
X51178454Y-98079135D01*
X51051134Y-97992141D01*
X50900000Y-97961536D01*
X48750000Y-97961536D01*
X48608810Y-97988103D01*
X48479135Y-98071546D01*
X48392141Y-98198866D01*
X48361536Y-98350000D01*
X47938464Y-98350000D01*
X47911897Y-98208810D01*
X47828454Y-98079135D01*
X47701134Y-97992141D01*
X47550000Y-97961536D01*
X45250000Y-97961536D01*
X45108810Y-97988103D01*
X44979135Y-98071546D01*
X44892141Y-98198866D01*
X44861536Y-98350000D01*
X44438464Y-98350000D01*
X44411897Y-98208810D01*
X44328454Y-98079135D01*
X44201134Y-97992141D01*
X44050000Y-97961536D01*
X41600000Y-97961536D01*
X41458810Y-97988103D01*
X41329135Y-98071546D01*
X41242141Y-98198866D01*
X41211536Y-98350000D01*
X40788464Y-98350000D01*
X40761897Y-98208810D01*
X40678454Y-98079135D01*
X40551134Y-97992141D01*
X40400000Y-97961536D01*
X38900000Y-97961536D01*
X38758810Y-97988103D01*
X38629135Y-98071546D01*
X38542141Y-98198866D01*
X38511536Y-98350000D01*
X38511536Y-98361688D01*
X38364748Y-98422339D01*
X38173013Y-98613741D01*
X38069118Y-98863946D01*
X38068882Y-99134865D01*
X36806787Y-99134865D01*
X36788327Y-99090301D01*
X36609698Y-98911673D01*
X36376309Y-98815000D01*
X36035750Y-98815000D01*
X35877000Y-98973750D01*
X35623000Y-98973750D01*
X35464250Y-98815000D01*
X35123691Y-98815000D01*
X34890302Y-98911673D01*
X34711673Y-99090301D01*
X34615000Y-99323690D01*
X27956000Y-99323690D01*
X27956000Y-98877000D01*
X33500000Y-98877000D01*
X33547167Y-98867917D01*
X36047167Y-97867917D01*
X36088553Y-97841035D01*
X36116994Y-97799410D01*
X36127000Y-97750000D01*
X36127000Y-97185000D01*
X36376309Y-97185000D01*
X36609698Y-97088327D01*
X36788327Y-96909699D01*
X36885000Y-96676310D01*
X36885000Y-95585750D01*
X40165000Y-95585750D01*
X40165000Y-96026309D01*
X40261673Y-96259698D01*
X40440301Y-96438327D01*
X40673690Y-96535000D01*
X40964250Y-96535000D01*
X41123000Y-96376250D01*
X41123000Y-95427000D01*
X41377000Y-95427000D01*
X41377000Y-96376250D01*
X41535750Y-96535000D01*
X41826310Y-96535000D01*
X42059699Y-96438327D01*
X42238327Y-96259698D01*
X42335000Y-96026309D01*
X42335000Y-95585750D01*
X44915000Y-95585750D01*
X44915000Y-96026309D01*
X45011673Y-96259698D01*
X45190301Y-96438327D01*
X45423690Y-96535000D01*
X45714250Y-96535000D01*
X45873000Y-96376250D01*
X45873000Y-95427000D01*
X46127000Y-95427000D01*
X46127000Y-96376250D01*
X46285750Y-96535000D01*
X46576310Y-96535000D01*
X46809699Y-96438327D01*
X46988327Y-96259698D01*
X47085000Y-96026309D01*
X47085000Y-95585750D01*
X49665000Y-95585750D01*
X49665000Y-96026309D01*
X49761673Y-96259698D01*
X49940301Y-96438327D01*
X50173690Y-96535000D01*
X50464250Y-96535000D01*
X50623000Y-96376250D01*
X50623000Y-95427000D01*
X50877000Y-95427000D01*
X50877000Y-96376250D01*
X51035750Y-96535000D01*
X51326310Y-96535000D01*
X51559699Y-96438327D01*
X51738327Y-96259698D01*
X51835000Y-96026309D01*
X51835000Y-95585750D01*
X51676250Y-95427000D01*
X50877000Y-95427000D01*
X50623000Y-95427000D01*
X49823750Y-95427000D01*
X49665000Y-95585750D01*
X47085000Y-95585750D01*
X46926250Y-95427000D01*
X46127000Y-95427000D01*
X45873000Y-95427000D01*
X45073750Y-95427000D01*
X44915000Y-95585750D01*
X42335000Y-95585750D01*
X42176250Y-95427000D01*
X41377000Y-95427000D01*
X41123000Y-95427000D01*
X40323750Y-95427000D01*
X40165000Y-95585750D01*
X36885000Y-95585750D01*
X36885000Y-95535750D01*
X36726250Y-95377000D01*
X36127000Y-95377000D01*
X36127000Y-95123000D01*
X36726250Y-95123000D01*
X36885000Y-94964250D01*
X36885000Y-94261712D01*
X37000000Y-94285000D01*
X38600000Y-94285000D01*
X38830795Y-94241573D01*
X38886744Y-94205571D01*
X39002949Y-94284971D01*
G36*
X64044000Y-85373000D02*
X56250000Y-85373000D01*
X56203841Y-85381685D01*
X56161447Y-85408965D01*
X56133006Y-85450590D01*
X56123000Y-85500000D01*
X56123000Y-86815000D01*
X56122998Y-86815000D01*
X56122998Y-86973748D01*
X55964250Y-86815000D01*
X55623691Y-86815000D01*
X55390302Y-86911673D01*
X55211673Y-87090301D01*
X55115000Y-87323690D01*
X55115000Y-88464250D01*
X55273750Y-88623000D01*
X56123000Y-88623000D01*
X56123000Y-88877000D01*
X55273750Y-88877000D01*
X55115000Y-89035750D01*
X55115000Y-89948413D01*
X54950000Y-89915000D01*
X53350000Y-89915000D01*
X53119205Y-89958427D01*
X53063256Y-89994429D01*
X52947051Y-89915029D01*
X52700000Y-89865000D01*
X51733025Y-89865000D01*
X51738327Y-89859698D01*
X51835000Y-89626309D01*
X51835000Y-89185750D01*
X51676250Y-89027000D01*
X50877000Y-89027000D01*
X50877000Y-89047000D01*
X50623000Y-89047000D01*
X50623000Y-89027000D01*
X49823750Y-89027000D01*
X49665000Y-89185750D01*
X49665000Y-89626309D01*
X49761673Y-89859698D01*
X49766975Y-89865000D01*
X48700000Y-89865000D01*
X48469205Y-89908427D01*
X48349821Y-89985249D01*
X48247051Y-89915029D01*
X48000000Y-89865000D01*
X46983025Y-89865000D01*
X46988327Y-89859698D01*
X47085000Y-89626309D01*
X47085000Y-89185750D01*
X46926250Y-89027000D01*
X46127000Y-89027000D01*
X46127000Y-89047000D01*
X45873000Y-89047000D01*
X45873000Y-89027000D01*
X45073750Y-89027000D01*
X44915000Y-89185750D01*
X44915000Y-89626309D01*
X45011673Y-89859698D01*
X45016975Y-89865000D01*
X44000000Y-89865000D01*
X43769205Y-89908427D01*
X43649821Y-89985249D01*
X43547051Y-89915029D01*
X43300000Y-89865000D01*
X42233025Y-89865000D01*
X42238327Y-89859698D01*
X42335000Y-89626309D01*
X42335000Y-89185750D01*
X42176250Y-89027000D01*
X41377000Y-89027000D01*
X41377000Y-89047000D01*
X41123000Y-89047000D01*
X41123000Y-89027000D01*
X40323750Y-89027000D01*
X40165000Y-89185750D01*
X40165000Y-89626309D01*
X40261673Y-89859698D01*
X40266975Y-89865000D01*
X39250000Y-89865000D01*
X39019205Y-89908427D01*
X38887884Y-89992929D01*
X38847051Y-89965029D01*
X38600000Y-89915000D01*
X37000000Y-89915000D01*
X36885000Y-89936639D01*
X36885000Y-89035750D01*
X36726250Y-88877000D01*
X36127000Y-88877000D01*
X36127000Y-88623000D01*
X36726250Y-88623000D01*
X36885000Y-88464250D01*
X36885000Y-88173691D01*
X40165000Y-88173691D01*
X40165000Y-88614250D01*
X40323750Y-88773000D01*
X41123000Y-88773000D01*
X41123000Y-87823750D01*
X41377000Y-87823750D01*
X41377000Y-88773000D01*
X42176250Y-88773000D01*
X42335000Y-88614250D01*
X42335000Y-88173691D01*
X44915000Y-88173691D01*
X44915000Y-88614250D01*
X45073750Y-88773000D01*
X45873000Y-88773000D01*
X45873000Y-87823750D01*
X46127000Y-87823750D01*
X46127000Y-88773000D01*
X46926250Y-88773000D01*
X47085000Y-88614250D01*
X47085000Y-88173691D01*
X49665000Y-88173691D01*
X49665000Y-88614250D01*
X49823750Y-88773000D01*
X50623000Y-88773000D01*
X50623000Y-87823750D01*
X50877000Y-87823750D01*
X50877000Y-88773000D01*
X51676250Y-88773000D01*
X51835000Y-88614250D01*
X51835000Y-88173691D01*
X51738327Y-87940302D01*
X51559699Y-87761673D01*
X51326310Y-87665000D01*
X51035750Y-87665000D01*
X50877000Y-87823750D01*
X50623000Y-87823750D01*
X50464250Y-87665000D01*
X50173690Y-87665000D01*
X49940301Y-87761673D01*
X49761673Y-87940302D01*
X49665000Y-88173691D01*
X47085000Y-88173691D01*
X46988327Y-87940302D01*
X46809699Y-87761673D01*
X46576310Y-87665000D01*
X46285750Y-87665000D01*
X46127000Y-87823750D01*
X45873000Y-87823750D01*
X45714250Y-87665000D01*
X45423690Y-87665000D01*
X45190301Y-87761673D01*
X45011673Y-87940302D01*
X44915000Y-88173691D01*
X42335000Y-88173691D01*
X42238327Y-87940302D01*
X42059699Y-87761673D01*
X41826310Y-87665000D01*
X41535750Y-87665000D01*
X41377000Y-87823750D01*
X41123000Y-87823750D01*
X40964250Y-87665000D01*
X40673690Y-87665000D01*
X40440301Y-87761673D01*
X40261673Y-87940302D01*
X40165000Y-88173691D01*
X36885000Y-88173691D01*
X36885000Y-87323690D01*
X36788327Y-87090301D01*
X36609698Y-86911673D01*
X36376309Y-86815000D01*
X36127000Y-86815000D01*
X36127000Y-85500000D01*
X36118315Y-85453841D01*
X36091035Y-85411447D01*
X36049410Y-85383006D01*
X36000000Y-85373000D01*
X27956000Y-85373000D01*
X27956000Y-83185750D01*
X34615000Y-83185750D01*
X34615000Y-84676310D01*
X34711673Y-84909699D01*
X34890302Y-85088327D01*
X35123691Y-85185000D01*
X35464250Y-85185000D01*
X35623000Y-85026250D01*
X35623000Y-83027000D01*
X35877000Y-83027000D01*
X35877000Y-85026250D01*
X36035750Y-85185000D01*
X36376309Y-85185000D01*
X36497345Y-85134865D01*
X38068882Y-85134865D01*
X38172339Y-85385252D01*
X38363741Y-85576987D01*
X38511536Y-85638357D01*
X38511536Y-85650000D01*
X38538103Y-85791190D01*
X38621546Y-85920865D01*
X38748866Y-86007859D01*
X38900000Y-86038464D01*
X40400000Y-86038464D01*
X40541190Y-86011897D01*
X40670865Y-85928454D01*
X40757859Y-85801134D01*
X40788464Y-85650000D01*
X40788464Y-84350000D01*
X41211536Y-84350000D01*
X41211536Y-85650000D01*
X41238103Y-85791190D01*
X41321546Y-85920865D01*
X41448866Y-86007859D01*
X41600000Y-86038464D01*
X43900000Y-86038464D01*
X44041190Y-86011897D01*
X44170865Y-85928454D01*
X44257859Y-85801134D01*
X44288464Y-85650000D01*
X44288464Y-84350000D01*
X44711536Y-84350000D01*
X44711536Y-85650000D01*
X44738103Y-85791190D01*
X44821546Y-85920865D01*
X44948866Y-86007859D01*
X45100000Y-86038464D01*
X47400000Y-86038464D01*
X47541190Y-86011897D01*
X47670865Y-85928454D01*
X47757859Y-85801134D01*
X47788464Y-85650000D01*
X47788464Y-84350000D01*
X48211536Y-84350000D01*
X48211536Y-85650000D01*
X48238103Y-85791190D01*
X48321546Y-85920865D01*
X48448866Y-86007859D01*
X48600000Y-86038464D01*
X50900000Y-86038464D01*
X51041190Y-86011897D01*
X51170865Y-85928454D01*
X51257859Y-85801134D01*
X51288464Y-85650000D01*
X51288464Y-84350000D01*
X51711536Y-84350000D01*
X51711536Y-85650000D01*
X51738103Y-85791190D01*
X51821546Y-85920865D01*
X51948866Y-86007859D01*
X52100000Y-86038464D01*
X53600000Y-86038464D01*
X53741190Y-86011897D01*
X53870865Y-85928454D01*
X53957859Y-85801134D01*
X53988464Y-85650000D01*
X53988464Y-85638312D01*
X54135252Y-85577661D01*
X54326987Y-85386259D01*
X54430882Y-85136054D01*
X54431118Y-84865135D01*
X54327661Y-84614748D01*
X54136259Y-84423013D01*
X53988464Y-84361643D01*
X53988464Y-84350000D01*
X53961897Y-84208810D01*
X53878454Y-84079135D01*
X53751134Y-83992141D01*
X53600000Y-83961536D01*
X52100000Y-83961536D01*
X51958810Y-83988103D01*
X51829135Y-84071546D01*
X51742141Y-84198866D01*
X51711536Y-84350000D01*
X51288464Y-84350000D01*
X51261897Y-84208810D01*
X51178454Y-84079135D01*
X51051134Y-83992141D01*
X50900000Y-83961536D01*
X48600000Y-83961536D01*
X48458810Y-83988103D01*
X48329135Y-84071546D01*
X48242141Y-84198866D01*
X48211536Y-84350000D01*
X47788464Y-84350000D01*
X47761897Y-84208810D01*
X47678454Y-84079135D01*
X47551134Y-83992141D01*
X47400000Y-83961536D01*
X45100000Y-83961536D01*
X44958810Y-83988103D01*
X44829135Y-84071546D01*
X44742141Y-84198866D01*
X44711536Y-84350000D01*
X44288464Y-84350000D01*
X44261897Y-84208810D01*
X44178454Y-84079135D01*
X44051134Y-83992141D01*
X43900000Y-83961536D01*
X41600000Y-83961536D01*
X41458810Y-83988103D01*
X41329135Y-84071546D01*
X41242141Y-84198866D01*
X41211536Y-84350000D01*
X40788464Y-84350000D01*
X40761897Y-84208810D01*
X40678454Y-84079135D01*
X40551134Y-83992141D01*
X40400000Y-83961536D01*
X38900000Y-83961536D01*
X38758810Y-83988103D01*
X38629135Y-84071546D01*
X38542141Y-84198866D01*
X38511536Y-84350000D01*
X38511536Y-84361688D01*
X38364748Y-84422339D01*
X38173013Y-84613741D01*
X38069118Y-84863946D01*
X38068882Y-85134865D01*
X36497345Y-85134865D01*
X36609698Y-85088327D01*
X36788327Y-84909699D01*
X36885000Y-84676310D01*
X36885000Y-83185750D01*
X55115000Y-83185750D01*
X55115000Y-84676310D01*
X55211673Y-84909699D01*
X55390302Y-85088327D01*
X55623691Y-85185000D01*
X55964250Y-85185000D01*
X56123000Y-85026250D01*
X56123000Y-83027000D01*
X56377000Y-83027000D01*
X56377000Y-85026250D01*
X56535750Y-85185000D01*
X56876309Y-85185000D01*
X57109698Y-85088327D01*
X57288327Y-84909699D01*
X57385000Y-84676310D01*
X57385000Y-83185750D01*
X57226250Y-83027000D01*
X56377000Y-83027000D01*
X56123000Y-83027000D01*
X55273750Y-83027000D01*
X55115000Y-83185750D01*
X36885000Y-83185750D01*
X36726250Y-83027000D01*
X35877000Y-83027000D01*
X35623000Y-83027000D01*
X34773750Y-83027000D01*
X34615000Y-83185750D01*
X27956000Y-83185750D01*
X27956000Y-81123690D01*
X34615000Y-81123690D01*
X34615000Y-82614250D01*
X34773750Y-82773000D01*
X34874975Y-82773000D01*
X34890302Y-82788327D01*
X35123691Y-82885000D01*
X36614250Y-82885000D01*
X36885000Y-82614250D01*
X36885000Y-81877000D01*
X37027000Y-81877000D01*
X37027000Y-82726250D01*
X37185750Y-82885000D01*
X38676309Y-82885000D01*
X38909698Y-82788327D01*
X39088327Y-82609699D01*
X39185000Y-82376310D01*
X39185000Y-82035750D01*
X40815000Y-82035750D01*
X40815000Y-82376310D01*
X40911673Y-82609699D01*
X41090302Y-82788327D01*
X41323691Y-82885000D01*
X42464250Y-82885000D01*
X42623000Y-82726250D01*
X42623000Y-81877000D01*
X42877000Y-81877000D01*
X42877000Y-82726250D01*
X43035750Y-82885000D01*
X44176309Y-82885000D01*
X44409698Y-82788327D01*
X44588327Y-82609699D01*
X44685000Y-82376310D01*
X44685000Y-82035750D01*
X47315000Y-82035750D01*
X47315000Y-82376310D01*
X47411673Y-82609699D01*
X47590302Y-82788327D01*
X47823691Y-82885000D01*
X48964250Y-82885000D01*
X49123000Y-82726250D01*
X49123000Y-81877000D01*
X49377000Y-81877000D01*
X49377000Y-82726250D01*
X49535750Y-82885000D01*
X50676309Y-82885000D01*
X50909698Y-82788327D01*
X51088327Y-82609699D01*
X51185000Y-82376310D01*
X51185000Y-82035750D01*
X52715000Y-82035750D01*
X52715000Y-82376310D01*
X52811673Y-82609699D01*
X52990302Y-82788327D01*
X53223691Y-82885000D01*
X54714250Y-82885000D01*
X54873000Y-82726250D01*
X54873000Y-81877000D01*
X52873750Y-81877000D01*
X52715000Y-82035750D01*
X51185000Y-82035750D01*
X51026250Y-81877000D01*
X49377000Y-81877000D01*
X49123000Y-81877000D01*
X47473750Y-81877000D01*
X47315000Y-82035750D01*
X44685000Y-82035750D01*
X44526250Y-81877000D01*
X42877000Y-81877000D01*
X42623000Y-81877000D01*
X40973750Y-81877000D01*
X40815000Y-82035750D01*
X39185000Y-82035750D01*
X39026250Y-81877000D01*
X37027000Y-81877000D01*
X36885000Y-81877000D01*
X36885000Y-81123690D01*
X36788327Y-80890301D01*
X36773000Y-80874974D01*
X36773000Y-80773750D01*
X37027000Y-80773750D01*
X37027000Y-81623000D01*
X39026250Y-81623000D01*
X39185000Y-81464250D01*
X39185000Y-81123690D01*
X40815000Y-81123690D01*
X40815000Y-81464250D01*
X40973750Y-81623000D01*
X42623000Y-81623000D01*
X42623000Y-80773750D01*
X42877000Y-80773750D01*
X42877000Y-81623000D01*
X44526250Y-81623000D01*
X44685000Y-81464250D01*
X44685000Y-81123690D01*
X47315000Y-81123690D01*
X47315000Y-81464250D01*
X47473750Y-81623000D01*
X49123000Y-81623000D01*
X49123000Y-80773750D01*
X49377000Y-80773750D01*
X49377000Y-81623000D01*
X51026250Y-81623000D01*
X51185000Y-81464250D01*
X51185000Y-81123690D01*
X52715000Y-81123690D01*
X52715000Y-81464250D01*
X52873750Y-81623000D01*
X54873000Y-81623000D01*
X54873000Y-81123690D01*
X55115000Y-81123690D01*
X55115000Y-82614250D01*
X55127000Y-82626250D01*
X55127000Y-82726250D01*
X55285750Y-82885000D01*
X56776309Y-82885000D01*
X57009698Y-82788327D01*
X57025025Y-82773000D01*
X57226250Y-82773000D01*
X57385000Y-82614250D01*
X57385000Y-81123690D01*
X57288327Y-80890301D01*
X57109698Y-80711673D01*
X56876309Y-80615000D01*
X55285750Y-80615000D01*
X55127000Y-80773750D01*
X55127000Y-81094719D01*
X55115000Y-81123690D01*
X54873000Y-81123690D01*
X54873000Y-80773750D01*
X54714250Y-80615000D01*
X53223691Y-80615000D01*
X52990302Y-80711673D01*
X52811673Y-80890301D01*
X52715000Y-81123690D01*
X51185000Y-81123690D01*
X51088327Y-80890301D01*
X50909698Y-80711673D01*
X50676309Y-80615000D01*
X49535750Y-80615000D01*
X49377000Y-80773750D01*
X49123000Y-80773750D01*
X48964250Y-80615000D01*
X47823691Y-80615000D01*
X47590302Y-80711673D01*
X47411673Y-80890301D01*
X47315000Y-81123690D01*
X44685000Y-81123690D01*
X44588327Y-80890301D01*
X44409698Y-80711673D01*
X44176309Y-80615000D01*
X43035750Y-80615000D01*
X42877000Y-80773750D01*
X42623000Y-80773750D01*
X42464250Y-80615000D01*
X41323691Y-80615000D01*
X41090302Y-80711673D01*
X40911673Y-80890301D01*
X40815000Y-81123690D01*
X39185000Y-81123690D01*
X39088327Y-80890301D01*
X38909698Y-80711673D01*
X38676309Y-80615000D01*
X37185750Y-80615000D01*
X37027000Y-80773750D01*
X36773000Y-80773750D01*
X36614250Y-80615000D01*
X35123691Y-80615000D01*
X34890302Y-80711673D01*
X34711673Y-80890301D01*
X34615000Y-81123690D01*
X27956000Y-81123690D01*
X27956000Y-80456000D01*
X64044000Y-80456000D01*
X64044000Y-85373000D01*
X64044000Y-85373000D01*
G37*
X64044000Y-85373000D02*
X56250000Y-85373000D01*
X56203841Y-85381685D01*
X56161447Y-85408965D01*
X56133006Y-85450590D01*
X56123000Y-85500000D01*
X56123000Y-86815000D01*
X56122998Y-86815000D01*
X56122998Y-86973748D01*
X55964250Y-86815000D01*
X55623691Y-86815000D01*
X55390302Y-86911673D01*
X55211673Y-87090301D01*
X55115000Y-87323690D01*
X55115000Y-88464250D01*
X55273750Y-88623000D01*
X56123000Y-88623000D01*
X56123000Y-88877000D01*
X55273750Y-88877000D01*
X55115000Y-89035750D01*
X55115000Y-89948413D01*
X54950000Y-89915000D01*
X53350000Y-89915000D01*
X53119205Y-89958427D01*
X53063256Y-89994429D01*
X52947051Y-89915029D01*
X52700000Y-89865000D01*
X51733025Y-89865000D01*
X51738327Y-89859698D01*
X51835000Y-89626309D01*
X51835000Y-89185750D01*
X51676250Y-89027000D01*
X50877000Y-89027000D01*
X50877000Y-89047000D01*
X50623000Y-89047000D01*
X50623000Y-89027000D01*
X49823750Y-89027000D01*
X49665000Y-89185750D01*
X49665000Y-89626309D01*
X49761673Y-89859698D01*
X49766975Y-89865000D01*
X48700000Y-89865000D01*
X48469205Y-89908427D01*
X48349821Y-89985249D01*
X48247051Y-89915029D01*
X48000000Y-89865000D01*
X46983025Y-89865000D01*
X46988327Y-89859698D01*
X47085000Y-89626309D01*
X47085000Y-89185750D01*
X46926250Y-89027000D01*
X46127000Y-89027000D01*
X46127000Y-89047000D01*
X45873000Y-89047000D01*
X45873000Y-89027000D01*
X45073750Y-89027000D01*
X44915000Y-89185750D01*
X44915000Y-89626309D01*
X45011673Y-89859698D01*
X45016975Y-89865000D01*
X44000000Y-89865000D01*
X43769205Y-89908427D01*
X43649821Y-89985249D01*
X43547051Y-89915029D01*
X43300000Y-89865000D01*
X42233025Y-89865000D01*
X42238327Y-89859698D01*
X42335000Y-89626309D01*
X42335000Y-89185750D01*
X42176250Y-89027000D01*
X41377000Y-89027000D01*
X41377000Y-89047000D01*
X41123000Y-89047000D01*
X41123000Y-89027000D01*
X40323750Y-89027000D01*
X40165000Y-89185750D01*
X40165000Y-89626309D01*
X40261673Y-89859698D01*
X40266975Y-89865000D01*
X39250000Y-89865000D01*
X39019205Y-89908427D01*
X38887884Y-89992929D01*
X38847051Y-89965029D01*
X38600000Y-89915000D01*
X37000000Y-89915000D01*
X36885000Y-89936639D01*
X36885000Y-89035750D01*
X36726250Y-88877000D01*
X36127000Y-88877000D01*
X36127000Y-88623000D01*
X36726250Y-88623000D01*
X36885000Y-88464250D01*
X36885000Y-88173691D01*
X40165000Y-88173691D01*
X40165000Y-88614250D01*
X40323750Y-88773000D01*
X41123000Y-88773000D01*
X41123000Y-87823750D01*
X41377000Y-87823750D01*
X41377000Y-88773000D01*
X42176250Y-88773000D01*
X42335000Y-88614250D01*
X42335000Y-88173691D01*
X44915000Y-88173691D01*
X44915000Y-88614250D01*
X45073750Y-88773000D01*
X45873000Y-88773000D01*
X45873000Y-87823750D01*
X46127000Y-87823750D01*
X46127000Y-88773000D01*
X46926250Y-88773000D01*
X47085000Y-88614250D01*
X47085000Y-88173691D01*
X49665000Y-88173691D01*
X49665000Y-88614250D01*
X49823750Y-88773000D01*
X50623000Y-88773000D01*
X50623000Y-87823750D01*
X50877000Y-87823750D01*
X50877000Y-88773000D01*
X51676250Y-88773000D01*
X51835000Y-88614250D01*
X51835000Y-88173691D01*
X51738327Y-87940302D01*
X51559699Y-87761673D01*
X51326310Y-87665000D01*
X51035750Y-87665000D01*
X50877000Y-87823750D01*
X50623000Y-87823750D01*
X50464250Y-87665000D01*
X50173690Y-87665000D01*
X49940301Y-87761673D01*
X49761673Y-87940302D01*
X49665000Y-88173691D01*
X47085000Y-88173691D01*
X46988327Y-87940302D01*
X46809699Y-87761673D01*
X46576310Y-87665000D01*
X46285750Y-87665000D01*
X46127000Y-87823750D01*
X45873000Y-87823750D01*
X45714250Y-87665000D01*
X45423690Y-87665000D01*
X45190301Y-87761673D01*
X45011673Y-87940302D01*
X44915000Y-88173691D01*
X42335000Y-88173691D01*
X42238327Y-87940302D01*
X42059699Y-87761673D01*
X41826310Y-87665000D01*
X41535750Y-87665000D01*
X41377000Y-87823750D01*
X41123000Y-87823750D01*
X40964250Y-87665000D01*
X40673690Y-87665000D01*
X40440301Y-87761673D01*
X40261673Y-87940302D01*
X40165000Y-88173691D01*
X36885000Y-88173691D01*
X36885000Y-87323690D01*
X36788327Y-87090301D01*
X36609698Y-86911673D01*
X36376309Y-86815000D01*
X36127000Y-86815000D01*
X36127000Y-85500000D01*
X36118315Y-85453841D01*
X36091035Y-85411447D01*
X36049410Y-85383006D01*
X36000000Y-85373000D01*
X27956000Y-85373000D01*
X27956000Y-83185750D01*
X34615000Y-83185750D01*
X34615000Y-84676310D01*
X34711673Y-84909699D01*
X34890302Y-85088327D01*
X35123691Y-85185000D01*
X35464250Y-85185000D01*
X35623000Y-85026250D01*
X35623000Y-83027000D01*
X35877000Y-83027000D01*
X35877000Y-85026250D01*
X36035750Y-85185000D01*
X36376309Y-85185000D01*
X36497345Y-85134865D01*
X38068882Y-85134865D01*
X38172339Y-85385252D01*
X38363741Y-85576987D01*
X38511536Y-85638357D01*
X38511536Y-85650000D01*
X38538103Y-85791190D01*
X38621546Y-85920865D01*
X38748866Y-86007859D01*
X38900000Y-86038464D01*
X40400000Y-86038464D01*
X40541190Y-86011897D01*
X40670865Y-85928454D01*
X40757859Y-85801134D01*
X40788464Y-85650000D01*
X40788464Y-84350000D01*
X41211536Y-84350000D01*
X41211536Y-85650000D01*
X41238103Y-85791190D01*
X41321546Y-85920865D01*
X41448866Y-86007859D01*
X41600000Y-86038464D01*
X43900000Y-86038464D01*
X44041190Y-86011897D01*
X44170865Y-85928454D01*
X44257859Y-85801134D01*
X44288464Y-85650000D01*
X44288464Y-84350000D01*
X44711536Y-84350000D01*
X44711536Y-85650000D01*
X44738103Y-85791190D01*
X44821546Y-85920865D01*
X44948866Y-86007859D01*
X45100000Y-86038464D01*
X47400000Y-86038464D01*
X47541190Y-86011897D01*
X47670865Y-85928454D01*
X47757859Y-85801134D01*
X47788464Y-85650000D01*
X47788464Y-84350000D01*
X48211536Y-84350000D01*
X48211536Y-85650000D01*
X48238103Y-85791190D01*
X48321546Y-85920865D01*
X48448866Y-86007859D01*
X48600000Y-86038464D01*
X50900000Y-86038464D01*
X51041190Y-86011897D01*
X51170865Y-85928454D01*
X51257859Y-85801134D01*
X51288464Y-85650000D01*
X51288464Y-84350000D01*
X51711536Y-84350000D01*
X51711536Y-85650000D01*
X51738103Y-85791190D01*
X51821546Y-85920865D01*
X51948866Y-86007859D01*
X52100000Y-86038464D01*
X53600000Y-86038464D01*
X53741190Y-86011897D01*
X53870865Y-85928454D01*
X53957859Y-85801134D01*
X53988464Y-85650000D01*
X53988464Y-85638312D01*
X54135252Y-85577661D01*
X54326987Y-85386259D01*
X54430882Y-85136054D01*
X54431118Y-84865135D01*
X54327661Y-84614748D01*
X54136259Y-84423013D01*
X53988464Y-84361643D01*
X53988464Y-84350000D01*
X53961897Y-84208810D01*
X53878454Y-84079135D01*
X53751134Y-83992141D01*
X53600000Y-83961536D01*
X52100000Y-83961536D01*
X51958810Y-83988103D01*
X51829135Y-84071546D01*
X51742141Y-84198866D01*
X51711536Y-84350000D01*
X51288464Y-84350000D01*
X51261897Y-84208810D01*
X51178454Y-84079135D01*
X51051134Y-83992141D01*
X50900000Y-83961536D01*
X48600000Y-83961536D01*
X48458810Y-83988103D01*
X48329135Y-84071546D01*
X48242141Y-84198866D01*
X48211536Y-84350000D01*
X47788464Y-84350000D01*
X47761897Y-84208810D01*
X47678454Y-84079135D01*
X47551134Y-83992141D01*
X47400000Y-83961536D01*
X45100000Y-83961536D01*
X44958810Y-83988103D01*
X44829135Y-84071546D01*
X44742141Y-84198866D01*
X44711536Y-84350000D01*
X44288464Y-84350000D01*
X44261897Y-84208810D01*
X44178454Y-84079135D01*
X44051134Y-83992141D01*
X43900000Y-83961536D01*
X41600000Y-83961536D01*
X41458810Y-83988103D01*
X41329135Y-84071546D01*
X41242141Y-84198866D01*
X41211536Y-84350000D01*
X40788464Y-84350000D01*
X40761897Y-84208810D01*
X40678454Y-84079135D01*
X40551134Y-83992141D01*
X40400000Y-83961536D01*
X38900000Y-83961536D01*
X38758810Y-83988103D01*
X38629135Y-84071546D01*
X38542141Y-84198866D01*
X38511536Y-84350000D01*
X38511536Y-84361688D01*
X38364748Y-84422339D01*
X38173013Y-84613741D01*
X38069118Y-84863946D01*
X38068882Y-85134865D01*
X36497345Y-85134865D01*
X36609698Y-85088327D01*
X36788327Y-84909699D01*
X36885000Y-84676310D01*
X36885000Y-83185750D01*
X55115000Y-83185750D01*
X55115000Y-84676310D01*
X55211673Y-84909699D01*
X55390302Y-85088327D01*
X55623691Y-85185000D01*
X55964250Y-85185000D01*
X56123000Y-85026250D01*
X56123000Y-83027000D01*
X56377000Y-83027000D01*
X56377000Y-85026250D01*
X56535750Y-85185000D01*
X56876309Y-85185000D01*
X57109698Y-85088327D01*
X57288327Y-84909699D01*
X57385000Y-84676310D01*
X57385000Y-83185750D01*
X57226250Y-83027000D01*
X56377000Y-83027000D01*
X56123000Y-83027000D01*
X55273750Y-83027000D01*
X55115000Y-83185750D01*
X36885000Y-83185750D01*
X36726250Y-83027000D01*
X35877000Y-83027000D01*
X35623000Y-83027000D01*
X34773750Y-83027000D01*
X34615000Y-83185750D01*
X27956000Y-83185750D01*
X27956000Y-81123690D01*
X34615000Y-81123690D01*
X34615000Y-82614250D01*
X34773750Y-82773000D01*
X34874975Y-82773000D01*
X34890302Y-82788327D01*
X35123691Y-82885000D01*
X36614250Y-82885000D01*
X36885000Y-82614250D01*
X36885000Y-81877000D01*
X37027000Y-81877000D01*
X37027000Y-82726250D01*
X37185750Y-82885000D01*
X38676309Y-82885000D01*
X38909698Y-82788327D01*
X39088327Y-82609699D01*
X39185000Y-82376310D01*
X39185000Y-82035750D01*
X40815000Y-82035750D01*
X40815000Y-82376310D01*
X40911673Y-82609699D01*
X41090302Y-82788327D01*
X41323691Y-82885000D01*
X42464250Y-82885000D01*
X42623000Y-82726250D01*
X42623000Y-81877000D01*
X42877000Y-81877000D01*
X42877000Y-82726250D01*
X43035750Y-82885000D01*
X44176309Y-82885000D01*
X44409698Y-82788327D01*
X44588327Y-82609699D01*
X44685000Y-82376310D01*
X44685000Y-82035750D01*
X47315000Y-82035750D01*
X47315000Y-82376310D01*
X47411673Y-82609699D01*
X47590302Y-82788327D01*
X47823691Y-82885000D01*
X48964250Y-82885000D01*
X49123000Y-82726250D01*
X49123000Y-81877000D01*
X49377000Y-81877000D01*
X49377000Y-82726250D01*
X49535750Y-82885000D01*
X50676309Y-82885000D01*
X50909698Y-82788327D01*
X51088327Y-82609699D01*
X51185000Y-82376310D01*
X51185000Y-82035750D01*
X52715000Y-82035750D01*
X52715000Y-82376310D01*
X52811673Y-82609699D01*
X52990302Y-82788327D01*
X53223691Y-82885000D01*
X54714250Y-82885000D01*
X54873000Y-82726250D01*
X54873000Y-81877000D01*
X52873750Y-81877000D01*
X52715000Y-82035750D01*
X51185000Y-82035750D01*
X51026250Y-81877000D01*
X49377000Y-81877000D01*
X49123000Y-81877000D01*
X47473750Y-81877000D01*
X47315000Y-82035750D01*
X44685000Y-82035750D01*
X44526250Y-81877000D01*
X42877000Y-81877000D01*
X42623000Y-81877000D01*
X40973750Y-81877000D01*
X40815000Y-82035750D01*
X39185000Y-82035750D01*
X39026250Y-81877000D01*
X37027000Y-81877000D01*
X36885000Y-81877000D01*
X36885000Y-81123690D01*
X36788327Y-80890301D01*
X36773000Y-80874974D01*
X36773000Y-80773750D01*
X37027000Y-80773750D01*
X37027000Y-81623000D01*
X39026250Y-81623000D01*
X39185000Y-81464250D01*
X39185000Y-81123690D01*
X40815000Y-81123690D01*
X40815000Y-81464250D01*
X40973750Y-81623000D01*
X42623000Y-81623000D01*
X42623000Y-80773750D01*
X42877000Y-80773750D01*
X42877000Y-81623000D01*
X44526250Y-81623000D01*
X44685000Y-81464250D01*
X44685000Y-81123690D01*
X47315000Y-81123690D01*
X47315000Y-81464250D01*
X47473750Y-81623000D01*
X49123000Y-81623000D01*
X49123000Y-80773750D01*
X49377000Y-80773750D01*
X49377000Y-81623000D01*
X51026250Y-81623000D01*
X51185000Y-81464250D01*
X51185000Y-81123690D01*
X52715000Y-81123690D01*
X52715000Y-81464250D01*
X52873750Y-81623000D01*
X54873000Y-81623000D01*
X54873000Y-81123690D01*
X55115000Y-81123690D01*
X55115000Y-82614250D01*
X55127000Y-82626250D01*
X55127000Y-82726250D01*
X55285750Y-82885000D01*
X56776309Y-82885000D01*
X57009698Y-82788327D01*
X57025025Y-82773000D01*
X57226250Y-82773000D01*
X57385000Y-82614250D01*
X57385000Y-81123690D01*
X57288327Y-80890301D01*
X57109698Y-80711673D01*
X56876309Y-80615000D01*
X55285750Y-80615000D01*
X55127000Y-80773750D01*
X55127000Y-81094719D01*
X55115000Y-81123690D01*
X54873000Y-81123690D01*
X54873000Y-80773750D01*
X54714250Y-80615000D01*
X53223691Y-80615000D01*
X52990302Y-80711673D01*
X52811673Y-80890301D01*
X52715000Y-81123690D01*
X51185000Y-81123690D01*
X51088327Y-80890301D01*
X50909698Y-80711673D01*
X50676309Y-80615000D01*
X49535750Y-80615000D01*
X49377000Y-80773750D01*
X49123000Y-80773750D01*
X48964250Y-80615000D01*
X47823691Y-80615000D01*
X47590302Y-80711673D01*
X47411673Y-80890301D01*
X47315000Y-81123690D01*
X44685000Y-81123690D01*
X44588327Y-80890301D01*
X44409698Y-80711673D01*
X44176309Y-80615000D01*
X43035750Y-80615000D01*
X42877000Y-80773750D01*
X42623000Y-80773750D01*
X42464250Y-80615000D01*
X41323691Y-80615000D01*
X41090302Y-80711673D01*
X40911673Y-80890301D01*
X40815000Y-81123690D01*
X39185000Y-81123690D01*
X39088327Y-80890301D01*
X38909698Y-80711673D01*
X38676309Y-80615000D01*
X37185750Y-80615000D01*
X37027000Y-80773750D01*
X36773000Y-80773750D01*
X36614250Y-80615000D01*
X35123691Y-80615000D01*
X34890302Y-80711673D01*
X34711673Y-80890301D01*
X34615000Y-81123690D01*
X27956000Y-81123690D01*
X27956000Y-80456000D01*
X64044000Y-80456000D01*
X64044000Y-85373000D01*
M02*
