G04 #@! TF.FileFunction,Soldermask,Bot*
%FSLAX46Y46*%
G04 Gerber Fmt 4.6, Leading zero omitted, Abs format (unit mm)*
G04 Created by KiCad (PCBNEW 4.0.1-3.201512221402+6198~38~ubuntu14.04.1-stable) date Die 02 Feb 2016 12:25:03 CET*
%MOMM*%
G01*
G04 APERTURE LIST*
%ADD10C,0.100000*%
%ADD11C,0.250000*%
%ADD12C,0.300000*%
%ADD13C,0.150000*%
%ADD14R,5.480000X2.815000*%
%ADD15C,0.254000*%
G04 APERTURE END LIST*
D10*
D11*
X50845238Y-100782143D02*
X50892857Y-100829762D01*
X51035714Y-100877381D01*
X51130952Y-100877381D01*
X51273810Y-100829762D01*
X51369048Y-100734524D01*
X51416667Y-100639286D01*
X51464286Y-100448810D01*
X51464286Y-100305952D01*
X51416667Y-100115476D01*
X51369048Y-100020238D01*
X51273810Y-99925000D01*
X51130952Y-99877381D01*
X51035714Y-99877381D01*
X50892857Y-99925000D01*
X50845238Y-99972619D01*
X49845238Y-100782143D02*
X49892857Y-100829762D01*
X50035714Y-100877381D01*
X50130952Y-100877381D01*
X50273810Y-100829762D01*
X50369048Y-100734524D01*
X50416667Y-100639286D01*
X50464286Y-100448810D01*
X50464286Y-100305952D01*
X50416667Y-100115476D01*
X50369048Y-100020238D01*
X50273810Y-99925000D01*
X50130952Y-99877381D01*
X50035714Y-99877381D01*
X49892857Y-99925000D01*
X49845238Y-99972619D01*
X48321428Y-100353571D02*
X48178571Y-100401190D01*
X48130952Y-100448810D01*
X48083333Y-100544048D01*
X48083333Y-100686905D01*
X48130952Y-100782143D01*
X48178571Y-100829762D01*
X48273809Y-100877381D01*
X48654762Y-100877381D01*
X48654762Y-99877381D01*
X48321428Y-99877381D01*
X48226190Y-99925000D01*
X48178571Y-99972619D01*
X48130952Y-100067857D01*
X48130952Y-100163095D01*
X48178571Y-100258333D01*
X48226190Y-100305952D01*
X48321428Y-100353571D01*
X48654762Y-100353571D01*
X47464286Y-100401190D02*
X47464286Y-100877381D01*
X47797619Y-99877381D02*
X47464286Y-100401190D01*
X47130952Y-99877381D01*
X46797619Y-100496429D02*
X46035714Y-100496429D01*
X45607143Y-100829762D02*
X45464286Y-100877381D01*
X45226190Y-100877381D01*
X45130952Y-100829762D01*
X45083333Y-100782143D01*
X45035714Y-100686905D01*
X45035714Y-100591667D01*
X45083333Y-100496429D01*
X45130952Y-100448810D01*
X45226190Y-100401190D01*
X45416667Y-100353571D01*
X45511905Y-100305952D01*
X45559524Y-100258333D01*
X45607143Y-100163095D01*
X45607143Y-100067857D01*
X45559524Y-99972619D01*
X45511905Y-99925000D01*
X45416667Y-99877381D01*
X45178571Y-99877381D01*
X45035714Y-99925000D01*
X44654762Y-100591667D02*
X44178571Y-100591667D01*
X44750000Y-100877381D02*
X44416667Y-99877381D01*
X44083333Y-100877381D01*
X43083333Y-99877381D02*
X42464285Y-99877381D01*
X42797619Y-100258333D01*
X42654761Y-100258333D01*
X42559523Y-100305952D01*
X42511904Y-100353571D01*
X42464285Y-100448810D01*
X42464285Y-100686905D01*
X42511904Y-100782143D01*
X42559523Y-100829762D01*
X42654761Y-100877381D01*
X42940476Y-100877381D01*
X43035714Y-100829762D01*
X43083333Y-100782143D01*
X42035714Y-100782143D02*
X41988095Y-100829762D01*
X42035714Y-100877381D01*
X42083333Y-100829762D01*
X42035714Y-100782143D01*
X42035714Y-100877381D01*
X41369048Y-99877381D02*
X41273809Y-99877381D01*
X41178571Y-99925000D01*
X41130952Y-99972619D01*
X41083333Y-100067857D01*
X41035714Y-100258333D01*
X41035714Y-100496429D01*
X41083333Y-100686905D01*
X41130952Y-100782143D01*
X41178571Y-100829762D01*
X41273809Y-100877381D01*
X41369048Y-100877381D01*
X41464286Y-100829762D01*
X41511905Y-100782143D01*
X41559524Y-100686905D01*
X41607143Y-100496429D01*
X41607143Y-100258333D01*
X41559524Y-100067857D01*
X41511905Y-99972619D01*
X41464286Y-99925000D01*
X41369048Y-99877381D01*
X51345239Y-102908333D02*
X51392859Y-102860714D01*
X51488097Y-102717857D01*
X51535716Y-102622619D01*
X51583335Y-102479762D01*
X51630954Y-102241667D01*
X51630954Y-102051190D01*
X51583335Y-101813095D01*
X51535716Y-101670238D01*
X51488097Y-101575000D01*
X51392859Y-101432143D01*
X51345239Y-101384524D01*
X50535715Y-102479762D02*
X50630953Y-102527381D01*
X50821430Y-102527381D01*
X50916668Y-102479762D01*
X50964287Y-102432143D01*
X51011906Y-102336905D01*
X51011906Y-102051190D01*
X50964287Y-101955952D01*
X50916668Y-101908333D01*
X50821430Y-101860714D01*
X50630953Y-101860714D01*
X50535715Y-101908333D01*
X50202382Y-102908333D02*
X50154763Y-102860714D01*
X50059525Y-102717857D01*
X50011906Y-102622619D01*
X49964287Y-102479762D01*
X49916668Y-102241667D01*
X49916668Y-102051190D01*
X49964287Y-101813095D01*
X50011906Y-101670238D01*
X50059525Y-101575000D01*
X50154763Y-101432143D01*
X50202382Y-101384524D01*
X48488096Y-101527381D02*
X48297619Y-101527381D01*
X48202381Y-101575000D01*
X48107143Y-101670238D01*
X48059524Y-101860714D01*
X48059524Y-102194048D01*
X48107143Y-102384524D01*
X48202381Y-102479762D01*
X48297619Y-102527381D01*
X48488096Y-102527381D01*
X48583334Y-102479762D01*
X48678572Y-102384524D01*
X48726191Y-102194048D01*
X48726191Y-101860714D01*
X48678572Y-101670238D01*
X48583334Y-101575000D01*
X48488096Y-101527381D01*
X47773810Y-101860714D02*
X47392858Y-101860714D01*
X47630953Y-101527381D02*
X47630953Y-102384524D01*
X47583334Y-102479762D01*
X47488096Y-102527381D01*
X47392858Y-102527381D01*
X46678571Y-102479762D02*
X46773809Y-102527381D01*
X46964286Y-102527381D01*
X47059524Y-102479762D01*
X47107143Y-102384524D01*
X47107143Y-102003571D01*
X47059524Y-101908333D01*
X46964286Y-101860714D01*
X46773809Y-101860714D01*
X46678571Y-101908333D01*
X46630952Y-102003571D01*
X46630952Y-102098810D01*
X47107143Y-102194048D01*
X46059524Y-102527381D02*
X46154762Y-102479762D01*
X46202381Y-102384524D01*
X46202381Y-101527381D01*
X45535714Y-102527381D02*
X45630952Y-102479762D01*
X45678571Y-102432143D01*
X45726190Y-102336905D01*
X45726190Y-102051190D01*
X45678571Y-101955952D01*
X45630952Y-101908333D01*
X45535714Y-101860714D01*
X45392856Y-101860714D01*
X45297618Y-101908333D01*
X45249999Y-101955952D01*
X45202380Y-102051190D01*
X45202380Y-102336905D01*
X45249999Y-102432143D01*
X45297618Y-102479762D01*
X45392856Y-102527381D01*
X45535714Y-102527381D01*
X43630951Y-102479762D02*
X43726189Y-102527381D01*
X43916666Y-102527381D01*
X44011904Y-102479762D01*
X44059523Y-102384524D01*
X44059523Y-102003571D01*
X44011904Y-101908333D01*
X43916666Y-101860714D01*
X43726189Y-101860714D01*
X43630951Y-101908333D01*
X43583332Y-102003571D01*
X43583332Y-102098810D01*
X44059523Y-102194048D01*
X42630951Y-101575000D02*
X42726189Y-101527381D01*
X42869046Y-101527381D01*
X43011904Y-101575000D01*
X43107142Y-101670238D01*
X43154761Y-101765476D01*
X43202380Y-101955952D01*
X43202380Y-102098810D01*
X43154761Y-102289286D01*
X43107142Y-102384524D01*
X43011904Y-102479762D01*
X42869046Y-102527381D01*
X42773808Y-102527381D01*
X42630951Y-102479762D01*
X42583332Y-102432143D01*
X42583332Y-102098810D01*
X42773808Y-102098810D01*
X41773808Y-102479762D02*
X41869046Y-102527381D01*
X42059523Y-102527381D01*
X42154761Y-102479762D01*
X42202380Y-102384524D01*
X42202380Y-102003571D01*
X42154761Y-101908333D01*
X42059523Y-101860714D01*
X41869046Y-101860714D01*
X41773808Y-101908333D01*
X41726189Y-102003571D01*
X41726189Y-102098810D01*
X42202380Y-102194048D01*
X41297618Y-101860714D02*
X41297618Y-102527381D01*
X41297618Y-101955952D02*
X41249999Y-101908333D01*
X41154761Y-101860714D01*
X41011903Y-101860714D01*
X40916665Y-101908333D01*
X40869046Y-102003571D01*
X40869046Y-102527381D01*
D12*
X55142856Y-83428571D02*
X55642856Y-82714286D01*
X55999999Y-83428571D02*
X55999999Y-81928571D01*
X55428571Y-81928571D01*
X55285713Y-82000000D01*
X55214285Y-82071429D01*
X55142856Y-82214286D01*
X55142856Y-82428571D01*
X55214285Y-82571429D01*
X55285713Y-82642857D01*
X55428571Y-82714286D01*
X55999999Y-82714286D01*
X53999999Y-82642857D02*
X54499999Y-82642857D01*
X54499999Y-83428571D02*
X54499999Y-81928571D01*
X53785713Y-81928571D01*
X51571428Y-82642857D02*
X51357142Y-82714286D01*
X51285714Y-82785714D01*
X51214285Y-82928571D01*
X51214285Y-83142857D01*
X51285714Y-83285714D01*
X51357142Y-83357143D01*
X51500000Y-83428571D01*
X52071428Y-83428571D01*
X52071428Y-81928571D01*
X51571428Y-81928571D01*
X51428571Y-82000000D01*
X51357142Y-82071429D01*
X51285714Y-82214286D01*
X51285714Y-82357143D01*
X51357142Y-82500000D01*
X51428571Y-82571429D01*
X51571428Y-82642857D01*
X52071428Y-82642857D01*
X50571428Y-83428571D02*
X50571428Y-81928571D01*
X49928571Y-83357143D02*
X49714285Y-83428571D01*
X49357142Y-83428571D01*
X49214285Y-83357143D01*
X49142856Y-83285714D01*
X49071428Y-83142857D01*
X49071428Y-83000000D01*
X49142856Y-82857143D01*
X49214285Y-82785714D01*
X49357142Y-82714286D01*
X49642856Y-82642857D01*
X49785714Y-82571429D01*
X49857142Y-82500000D01*
X49928571Y-82357143D01*
X49928571Y-82214286D01*
X49857142Y-82071429D01*
X49785714Y-82000000D01*
X49642856Y-81928571D01*
X49285714Y-81928571D01*
X49071428Y-82000000D01*
X47571428Y-83285714D02*
X47642857Y-83357143D01*
X47857143Y-83428571D01*
X48000000Y-83428571D01*
X48214285Y-83357143D01*
X48357143Y-83214286D01*
X48428571Y-83071429D01*
X48500000Y-82785714D01*
X48500000Y-82571429D01*
X48428571Y-82285714D01*
X48357143Y-82142857D01*
X48214285Y-82000000D01*
X48000000Y-81928571D01*
X47857143Y-81928571D01*
X47642857Y-82000000D01*
X47571428Y-82071429D01*
X46928571Y-81928571D02*
X46928571Y-83142857D01*
X46857143Y-83285714D01*
X46785714Y-83357143D01*
X46642857Y-83428571D01*
X46357143Y-83428571D01*
X46214285Y-83357143D01*
X46142857Y-83285714D01*
X46071428Y-83142857D01*
X46071428Y-81928571D01*
X45357142Y-83428571D02*
X45357142Y-81928571D01*
X44857142Y-81928571D02*
X43999999Y-81928571D01*
X44428570Y-83428571D02*
X44428570Y-81928571D01*
X41499999Y-83428571D02*
X41999999Y-82714286D01*
X42357142Y-83428571D02*
X42357142Y-81928571D01*
X41785714Y-81928571D01*
X41642856Y-82000000D01*
X41571428Y-82071429D01*
X41499999Y-82214286D01*
X41499999Y-82428571D01*
X41571428Y-82571429D01*
X41642856Y-82642857D01*
X41785714Y-82714286D01*
X42357142Y-82714286D01*
X40285714Y-83357143D02*
X40428571Y-83428571D01*
X40714285Y-83428571D01*
X40857142Y-83357143D01*
X40928571Y-83214286D01*
X40928571Y-82642857D01*
X40857142Y-82500000D01*
X40714285Y-82428571D01*
X40428571Y-82428571D01*
X40285714Y-82500000D01*
X40214285Y-82642857D01*
X40214285Y-82785714D01*
X40928571Y-82928571D01*
X39714285Y-82428571D02*
X39357142Y-83428571D01*
X39000000Y-82428571D01*
X38428571Y-83285714D02*
X38357143Y-83357143D01*
X38428571Y-83428571D01*
X38500000Y-83357143D01*
X38428571Y-83285714D01*
X38428571Y-83428571D01*
X36642857Y-83000000D02*
X35928571Y-83000000D01*
X36785714Y-83428571D02*
X36285714Y-81928571D01*
X35785714Y-83428571D01*
X57047620Y-94533333D02*
X56095239Y-94533333D01*
X57238096Y-95104762D02*
X56571429Y-93104762D01*
X55904762Y-95104762D01*
X55523810Y-93104762D02*
X54380953Y-93104762D01*
X54952381Y-95104762D02*
X54952381Y-93104762D01*
X54000000Y-93104762D02*
X52857143Y-93104762D01*
X53428571Y-95104762D02*
X53428571Y-93104762D01*
X52190476Y-95104762D02*
X52190476Y-93104762D01*
X51047618Y-95104762D01*
X51047618Y-93104762D01*
X54857143Y-97157143D02*
X54571429Y-97252381D01*
X54476190Y-97347619D01*
X54380952Y-97538095D01*
X54380952Y-97823810D01*
X54476190Y-98014286D01*
X54571429Y-98109524D01*
X54761905Y-98204762D01*
X55523810Y-98204762D01*
X55523810Y-96204762D01*
X54857143Y-96204762D01*
X54666667Y-96300000D01*
X54571429Y-96395238D01*
X54476190Y-96585714D01*
X54476190Y-96776190D01*
X54571429Y-96966667D01*
X54666667Y-97061905D01*
X54857143Y-97157143D01*
X55523810Y-97157143D01*
X53523810Y-98204762D02*
X53523810Y-96204762D01*
X52761905Y-96204762D01*
X52571429Y-96300000D01*
X52476190Y-96395238D01*
X52380952Y-96585714D01*
X52380952Y-96871429D01*
X52476190Y-97061905D01*
X52571429Y-97157143D01*
X52761905Y-97252381D01*
X53523810Y-97252381D01*
X48880953Y-95104762D02*
X49833334Y-95104762D01*
X49833334Y-93104762D01*
X48214286Y-95104762D02*
X48214286Y-93104762D01*
X47452381Y-93104762D01*
X47261905Y-93200000D01*
X47166666Y-93295238D01*
X47071428Y-93485714D01*
X47071428Y-93771429D01*
X47166666Y-93961905D01*
X47261905Y-94057143D01*
X47452381Y-94152381D01*
X48214286Y-94152381D01*
X50071429Y-98204762D02*
X50071429Y-96204762D01*
X50071429Y-97157143D02*
X48928571Y-97157143D01*
X48928571Y-98204762D02*
X48928571Y-96204762D01*
X47976191Y-98204762D02*
X47976191Y-96204762D01*
X47214286Y-96204762D01*
X47023810Y-96300000D01*
X46928571Y-96395238D01*
X46833333Y-96585714D01*
X46833333Y-96871429D01*
X46928571Y-97061905D01*
X47023810Y-97157143D01*
X47214286Y-97252381D01*
X47976191Y-97252381D01*
X42083334Y-90654762D02*
X42083334Y-88654762D01*
X41892857Y-89892857D02*
X41321429Y-90654762D01*
X41321429Y-89321429D02*
X42083334Y-90083333D01*
X40464286Y-90654762D02*
X40464286Y-88654762D01*
X39797619Y-90083333D01*
X39130952Y-88654762D01*
X39130952Y-90654762D01*
X38178572Y-90654762D02*
X38178572Y-88654762D01*
X38178572Y-89607143D02*
X37035714Y-89607143D01*
X37035714Y-90654762D02*
X37035714Y-88654762D01*
X36273810Y-89321429D02*
X35226191Y-89321429D01*
X36273810Y-90654762D01*
X35226191Y-90654762D01*
X41071429Y-87904762D02*
X41071429Y-85904762D01*
X41071429Y-87809524D02*
X41261905Y-87904762D01*
X41642857Y-87904762D01*
X41833333Y-87809524D01*
X41928572Y-87714286D01*
X42023810Y-87523810D01*
X42023810Y-86952381D01*
X41928572Y-86761905D01*
X41833333Y-86666667D01*
X41642857Y-86571429D01*
X41261905Y-86571429D01*
X41071429Y-86666667D01*
X39452381Y-86857143D02*
X39166667Y-86952381D01*
X39071428Y-87047619D01*
X38976190Y-87238095D01*
X38976190Y-87523810D01*
X39071428Y-87714286D01*
X39166667Y-87809524D01*
X39357143Y-87904762D01*
X40119048Y-87904762D01*
X40119048Y-85904762D01*
X39452381Y-85904762D01*
X39261905Y-86000000D01*
X39166667Y-86095238D01*
X39071428Y-86285714D01*
X39071428Y-86476190D01*
X39166667Y-86666667D01*
X39261905Y-86761905D01*
X39452381Y-86857143D01*
X40119048Y-86857143D01*
D13*
X37581220Y-96939860D02*
X37220540Y-98410520D01*
X37220540Y-98410520D02*
X36941140Y-97348800D01*
X36941140Y-97348800D02*
X36631260Y-98420680D01*
X36631260Y-98420680D02*
X36290900Y-96970340D01*
X39001080Y-97630740D02*
X38211140Y-97620580D01*
X38211140Y-97620580D02*
X38200980Y-97630740D01*
X38200980Y-97630740D02*
X38200980Y-97620580D01*
X38160340Y-96909380D02*
X38160340Y-98451160D01*
X39049340Y-96899220D02*
X39049340Y-98468940D01*
X39049340Y-98468940D02*
X39039180Y-98458780D01*
X39600520Y-97000820D02*
X39951040Y-96919540D01*
X39951040Y-96919540D02*
X40271080Y-96909380D01*
X40271080Y-96909380D02*
X40509840Y-97110040D01*
X40509840Y-97110040D02*
X40540320Y-97379280D01*
X40540320Y-97379280D02*
X40299020Y-97620580D01*
X40299020Y-97620580D02*
X39910400Y-97750120D01*
X39910400Y-97750120D02*
X39730060Y-97910140D01*
X39730060Y-97910140D02*
X39689420Y-98209860D01*
X39689420Y-98209860D02*
X39920560Y-98430840D01*
X39920560Y-98430840D02*
X40240600Y-98458780D01*
X40240600Y-98458780D02*
X40591120Y-98349560D01*
X41629980Y-96899220D02*
X41878900Y-96919540D01*
X41878900Y-96919540D02*
X42120200Y-97160840D01*
X42120200Y-97160840D02*
X42209100Y-97651060D01*
X42209100Y-97651060D02*
X42181160Y-97999040D01*
X42181160Y-97999040D02*
X41980500Y-98319080D01*
X41980500Y-98319080D02*
X41729040Y-98441000D01*
X41729040Y-98441000D02*
X41419160Y-98369880D01*
X41419160Y-98369880D02*
X41200720Y-98189540D01*
X41200720Y-98189540D02*
X41129600Y-97729800D01*
X41129600Y-97729800D02*
X41180400Y-97320860D01*
X41180400Y-97320860D02*
X41289620Y-97038920D01*
X41289620Y-97038920D02*
X41650300Y-96909380D01*
X41030540Y-95179640D02*
X41289620Y-95740980D01*
X41289620Y-95740980D02*
X40751140Y-96259140D01*
X40751140Y-96259140D02*
X40230440Y-95989900D01*
X40230440Y-95989900D02*
X39951040Y-96149920D01*
X38510860Y-96129600D02*
X38180660Y-95939100D01*
X38180660Y-95939100D02*
X37741240Y-96269300D01*
X37741240Y-96269300D02*
X37268800Y-95779080D01*
X37268800Y-95779080D02*
X37550740Y-95299020D01*
X37550740Y-95299020D02*
X37360240Y-94829120D01*
X37360240Y-94829120D02*
X36750640Y-94641160D01*
X36750640Y-94641160D02*
X36750640Y-93960440D01*
X36750640Y-93960440D02*
X37309440Y-93820740D01*
X37309440Y-93820740D02*
X37510100Y-93249240D01*
X37510100Y-93249240D02*
X37240860Y-92779340D01*
X37240860Y-92779340D02*
X37710760Y-92268800D01*
X37710760Y-92268800D02*
X38228920Y-92530420D01*
X38228920Y-92530420D02*
X38698820Y-92329760D01*
X38698820Y-92329760D02*
X38869000Y-91788740D01*
X38869000Y-91788740D02*
X39559880Y-91770960D01*
X39559880Y-91770960D02*
X39770700Y-92319600D01*
X39770700Y-92319600D02*
X40189800Y-92489780D01*
X40189800Y-92489780D02*
X40740980Y-92220540D01*
X40740980Y-92220540D02*
X41259140Y-92748860D01*
X41259140Y-92748860D02*
X41010220Y-93289880D01*
X41010220Y-93289880D02*
X41180400Y-93769940D01*
X41180400Y-93769940D02*
X41729040Y-93869000D01*
X41729040Y-93869000D02*
X41739200Y-94570040D01*
X41739200Y-94570040D02*
X41180400Y-94770700D01*
X41180400Y-94770700D02*
X41040700Y-95169480D01*
X38899480Y-95149160D02*
X38599760Y-94999300D01*
X38599760Y-94999300D02*
X38399100Y-94801180D01*
X38399100Y-94801180D02*
X38249240Y-94399860D01*
X38249240Y-94399860D02*
X38249240Y-94001080D01*
X38249240Y-94001080D02*
X38399100Y-93650560D01*
X38399100Y-93650560D02*
X38851220Y-93300040D01*
X38851220Y-93300040D02*
X39300800Y-93249240D01*
X39300800Y-93249240D02*
X39699580Y-93350840D01*
X39699580Y-93350840D02*
X40100900Y-93698820D01*
X40100900Y-93698820D02*
X40250760Y-94150940D01*
X40250760Y-94150940D02*
X40199960Y-94648780D01*
X40199960Y-94648780D02*
X39951040Y-94951040D01*
X39951040Y-94951040D02*
X39600520Y-95149160D01*
X39600520Y-95149160D02*
X39951040Y-96149920D01*
X38899480Y-95149160D02*
X38500700Y-96149920D01*
D14*
X30400000Y-87617500D03*
X30385000Y-96350000D03*
X61600000Y-96482500D03*
X61615000Y-87750000D03*
D15*
G36*
X43623000Y-86552606D02*
X43623000Y-87697394D01*
X43500000Y-87820394D01*
X43377000Y-87697394D01*
X43377000Y-86552606D01*
X43500000Y-86429606D01*
X43623000Y-86552606D01*
X43623000Y-86552606D01*
G37*
X43623000Y-86552606D02*
X43623000Y-87697394D01*
X43500000Y-87820394D01*
X43377000Y-87697394D01*
X43377000Y-86552606D01*
X43500000Y-86429606D01*
X43623000Y-86552606D01*
G36*
X45320394Y-88250000D02*
X45197394Y-88373000D01*
X44052606Y-88373000D01*
X43929606Y-88250000D01*
X44052606Y-88127000D01*
X45197394Y-88127000D01*
X45320394Y-88250000D01*
X45320394Y-88250000D01*
G37*
X45320394Y-88250000D02*
X45197394Y-88373000D01*
X44052606Y-88373000D01*
X43929606Y-88250000D01*
X44052606Y-88127000D01*
X45197394Y-88127000D01*
X45320394Y-88250000D01*
G36*
X43623000Y-88802606D02*
X43623000Y-89947394D01*
X43500000Y-90070394D01*
X43377000Y-89947394D01*
X43377000Y-88802606D01*
X43500000Y-88679606D01*
X43623000Y-88802606D01*
X43623000Y-88802606D01*
G37*
X43623000Y-88802606D02*
X43623000Y-89947394D01*
X43500000Y-90070394D01*
X43377000Y-89947394D01*
X43377000Y-88802606D01*
X43500000Y-88679606D01*
X43623000Y-88802606D01*
G36*
X45873000Y-88801588D02*
X45873000Y-89946376D01*
X45750000Y-90069376D01*
X45627000Y-89946376D01*
X45627000Y-88801588D01*
X45750000Y-88678588D01*
X45873000Y-88801588D01*
X45873000Y-88801588D01*
G37*
X45873000Y-88801588D02*
X45873000Y-89946376D01*
X45750000Y-90069376D01*
X45627000Y-89946376D01*
X45627000Y-88801588D01*
X45750000Y-88678588D01*
X45873000Y-88801588D01*
G36*
X45873000Y-86552606D02*
X45873000Y-87697394D01*
X45750000Y-87820394D01*
X45627000Y-87697394D01*
X45627000Y-86552606D01*
X45750000Y-86429606D01*
X45873000Y-86552606D01*
X45873000Y-86552606D01*
G37*
X45873000Y-86552606D02*
X45873000Y-87697394D01*
X45750000Y-87820394D01*
X45627000Y-87697394D01*
X45627000Y-86552606D01*
X45750000Y-86429606D01*
X45873000Y-86552606D01*
G36*
X45320394Y-90500000D02*
X45197394Y-90623000D01*
X44052606Y-90623000D01*
X43929606Y-90500000D01*
X44052606Y-90377000D01*
X45197394Y-90377000D01*
X45320394Y-90500000D01*
X45320394Y-90500000D01*
G37*
X45320394Y-90500000D02*
X45197394Y-90623000D01*
X44052606Y-90623000D01*
X43929606Y-90500000D01*
X44052606Y-90377000D01*
X45197394Y-90377000D01*
X45320394Y-90500000D01*
G36*
X45346979Y-86000000D02*
X45223979Y-86123000D01*
X44079191Y-86123000D01*
X43956191Y-86000000D01*
X44079191Y-85877000D01*
X45223979Y-85877000D01*
X45346979Y-86000000D01*
X45346979Y-86000000D01*
G37*
X45346979Y-86000000D02*
X45223979Y-86123000D01*
X44079191Y-86123000D01*
X43956191Y-86000000D01*
X44079191Y-85877000D01*
X45223979Y-85877000D01*
X45346979Y-86000000D01*
G36*
X47123000Y-88802606D02*
X47123000Y-89947394D01*
X47000000Y-90070394D01*
X46877000Y-89947394D01*
X46877000Y-88802606D01*
X47000000Y-88679606D01*
X47123000Y-88802606D01*
X47123000Y-88802606D01*
G37*
X47123000Y-88802606D02*
X47123000Y-89947394D01*
X47000000Y-90070394D01*
X46877000Y-89947394D01*
X46877000Y-88802606D01*
X47000000Y-88679606D01*
X47123000Y-88802606D01*
G36*
X49373000Y-88801588D02*
X49373000Y-89946376D01*
X49250000Y-90069376D01*
X49127000Y-89946376D01*
X49127000Y-88801588D01*
X49250000Y-88678588D01*
X49373000Y-88801588D01*
X49373000Y-88801588D01*
G37*
X49373000Y-88801588D02*
X49373000Y-89946376D01*
X49250000Y-90069376D01*
X49127000Y-89946376D01*
X49127000Y-88801588D01*
X49250000Y-88678588D01*
X49373000Y-88801588D01*
G36*
X49373000Y-86552606D02*
X49373000Y-87697394D01*
X49250000Y-87820394D01*
X49127000Y-87697394D01*
X49127000Y-86552606D01*
X49250000Y-86429606D01*
X49373000Y-86552606D01*
X49373000Y-86552606D01*
G37*
X49373000Y-86552606D02*
X49373000Y-87697394D01*
X49250000Y-87820394D01*
X49127000Y-87697394D01*
X49127000Y-86552606D01*
X49250000Y-86429606D01*
X49373000Y-86552606D01*
G36*
X48820394Y-90500000D02*
X48697394Y-90623000D01*
X47552606Y-90623000D01*
X47429606Y-90500000D01*
X47552606Y-90377000D01*
X48697394Y-90377000D01*
X48820394Y-90500000D01*
X48820394Y-90500000D01*
G37*
X48820394Y-90500000D02*
X48697394Y-90623000D01*
X47552606Y-90623000D01*
X47429606Y-90500000D01*
X47552606Y-90377000D01*
X48697394Y-90377000D01*
X48820394Y-90500000D01*
G36*
X48820394Y-88250000D02*
X48697394Y-88373000D01*
X47552606Y-88373000D01*
X47429606Y-88250000D01*
X47552606Y-88127000D01*
X48697394Y-88127000D01*
X48820394Y-88250000D01*
X48820394Y-88250000D01*
G37*
X48820394Y-88250000D02*
X48697394Y-88373000D01*
X47552606Y-88373000D01*
X47429606Y-88250000D01*
X47552606Y-88127000D01*
X48697394Y-88127000D01*
X48820394Y-88250000D01*
G36*
X48846979Y-86000000D02*
X48723979Y-86123000D01*
X47579191Y-86123000D01*
X47456191Y-86000000D01*
X47579191Y-85877000D01*
X48723979Y-85877000D01*
X48846979Y-86000000D01*
X48846979Y-86000000D01*
G37*
X48846979Y-86000000D02*
X48723979Y-86123000D01*
X47579191Y-86123000D01*
X47456191Y-86000000D01*
X47579191Y-85877000D01*
X48723979Y-85877000D01*
X48846979Y-86000000D01*
G36*
X47123000Y-86552606D02*
X47123000Y-87697394D01*
X47000000Y-87820394D01*
X46877000Y-87697394D01*
X46877000Y-86552606D01*
X47000000Y-86429606D01*
X47123000Y-86552606D01*
X47123000Y-86552606D01*
G37*
X47123000Y-86552606D02*
X47123000Y-87697394D01*
X47000000Y-87820394D01*
X46877000Y-87697394D01*
X46877000Y-86552606D01*
X47000000Y-86429606D01*
X47123000Y-86552606D01*
G36*
X50623000Y-88802606D02*
X50623000Y-89947394D01*
X50500000Y-90070394D01*
X50377000Y-89947394D01*
X50377000Y-88802606D01*
X50500000Y-88679606D01*
X50623000Y-88802606D01*
X50623000Y-88802606D01*
G37*
X50623000Y-88802606D02*
X50623000Y-89947394D01*
X50500000Y-90070394D01*
X50377000Y-89947394D01*
X50377000Y-88802606D01*
X50500000Y-88679606D01*
X50623000Y-88802606D01*
G36*
X52873000Y-88801588D02*
X52873000Y-89946376D01*
X52750000Y-90069376D01*
X52627000Y-89946376D01*
X52627000Y-88801588D01*
X52750000Y-88678588D01*
X52873000Y-88801588D01*
X52873000Y-88801588D01*
G37*
X52873000Y-88801588D02*
X52873000Y-89946376D01*
X52750000Y-90069376D01*
X52627000Y-89946376D01*
X52627000Y-88801588D01*
X52750000Y-88678588D01*
X52873000Y-88801588D01*
G36*
X52873000Y-86552606D02*
X52873000Y-87697394D01*
X52750000Y-87820394D01*
X52627000Y-87697394D01*
X52627000Y-86552606D01*
X52750000Y-86429606D01*
X52873000Y-86552606D01*
X52873000Y-86552606D01*
G37*
X52873000Y-86552606D02*
X52873000Y-87697394D01*
X52750000Y-87820394D01*
X52627000Y-87697394D01*
X52627000Y-86552606D01*
X52750000Y-86429606D01*
X52873000Y-86552606D01*
G36*
X52320394Y-90500000D02*
X52197394Y-90623000D01*
X51052606Y-90623000D01*
X50929606Y-90500000D01*
X51052606Y-90377000D01*
X52197394Y-90377000D01*
X52320394Y-90500000D01*
X52320394Y-90500000D01*
G37*
X52320394Y-90500000D02*
X52197394Y-90623000D01*
X51052606Y-90623000D01*
X50929606Y-90500000D01*
X51052606Y-90377000D01*
X52197394Y-90377000D01*
X52320394Y-90500000D01*
G36*
X52320394Y-88250000D02*
X52197394Y-88373000D01*
X51052606Y-88373000D01*
X50929606Y-88250000D01*
X51052606Y-88127000D01*
X52197394Y-88127000D01*
X52320394Y-88250000D01*
X52320394Y-88250000D01*
G37*
X52320394Y-88250000D02*
X52197394Y-88373000D01*
X51052606Y-88373000D01*
X50929606Y-88250000D01*
X51052606Y-88127000D01*
X52197394Y-88127000D01*
X52320394Y-88250000D01*
G36*
X52346979Y-86000000D02*
X52223979Y-86123000D01*
X51079191Y-86123000D01*
X50956191Y-86000000D01*
X51079191Y-85877000D01*
X52223979Y-85877000D01*
X52346979Y-86000000D01*
X52346979Y-86000000D01*
G37*
X52346979Y-86000000D02*
X52223979Y-86123000D01*
X51079191Y-86123000D01*
X50956191Y-86000000D01*
X51079191Y-85877000D01*
X52223979Y-85877000D01*
X52346979Y-86000000D01*
G36*
X50623000Y-86552606D02*
X50623000Y-87697394D01*
X50500000Y-87820394D01*
X50377000Y-87697394D01*
X50377000Y-86552606D01*
X50500000Y-86429606D01*
X50623000Y-86552606D01*
X50623000Y-86552606D01*
G37*
X50623000Y-86552606D02*
X50623000Y-87697394D01*
X50500000Y-87820394D01*
X50377000Y-87697394D01*
X50377000Y-86552606D01*
X50500000Y-86429606D01*
X50623000Y-86552606D01*
G36*
X55320394Y-88250000D02*
X55197394Y-88373000D01*
X54052606Y-88373000D01*
X53929606Y-88250000D01*
X54052606Y-88127000D01*
X55197394Y-88127000D01*
X55320394Y-88250000D01*
X55320394Y-88250000D01*
G37*
X55320394Y-88250000D02*
X55197394Y-88373000D01*
X54052606Y-88373000D01*
X53929606Y-88250000D01*
X54052606Y-88127000D01*
X55197394Y-88127000D01*
X55320394Y-88250000D01*
G36*
X62123000Y-84123000D02*
X60377000Y-84123000D01*
X60377000Y-82377000D01*
X62123000Y-82377000D01*
X62123000Y-84123000D01*
X62123000Y-84123000D01*
G37*
X62123000Y-84123000D02*
X60377000Y-84123000D01*
X60377000Y-82377000D01*
X62123000Y-82377000D01*
X62123000Y-84123000D01*
G36*
X31623000Y-84123000D02*
X29877000Y-84123000D01*
X29877000Y-82377000D01*
X31623000Y-82377000D01*
X31623000Y-84123000D01*
X31623000Y-84123000D01*
G37*
X31623000Y-84123000D02*
X29877000Y-84123000D01*
X29877000Y-82377000D01*
X31623000Y-82377000D01*
X31623000Y-84123000D01*
G36*
X31623000Y-101623000D02*
X29877000Y-101623000D01*
X29877000Y-99877000D01*
X31623000Y-99877000D01*
X31623000Y-101623000D01*
X31623000Y-101623000D01*
G37*
X31623000Y-101623000D02*
X29877000Y-101623000D01*
X29877000Y-99877000D01*
X31623000Y-99877000D01*
X31623000Y-101623000D01*
G36*
X62123000Y-101623000D02*
X60377000Y-101623000D01*
X60377000Y-99877000D01*
X62123000Y-99877000D01*
X62123000Y-101623000D01*
X62123000Y-101623000D01*
G37*
X62123000Y-101623000D02*
X60377000Y-101623000D01*
X60377000Y-99877000D01*
X62123000Y-99877000D01*
X62123000Y-101623000D01*
M02*
