G04 #@! TF.FileFunction,Soldermask,Top*
%FSLAX46Y46*%
G04 Gerber Fmt 4.6, Leading zero omitted, Abs format (unit mm)*
G04 Created by KiCad (PCBNEW 4.0.1-3.201512221402+6198~38~ubuntu14.04.1-stable) date Die 02 Feb 2016 12:45:37 CET*
%MOMM*%
G01*
G04 APERTURE LIST*
%ADD10C,0.100000*%
%ADD11C,0.400000*%
%ADD12R,1.600000X1.300000*%
%ADD13R,1.300000X1.600000*%
%ADD14R,1.400000X3.000000*%
%ADD15R,1.400000X3.700000*%
%ADD16R,3.700000X1.400000*%
%ADD17R,3.000000X1.400000*%
%ADD18R,1.900000X1.700000*%
%ADD19R,5.480000X2.690000*%
%ADD20R,5.480000X2.815000*%
G04 APERTURE END LIST*
D10*
D11*
X60000000Y-83250000D02*
X60750000Y-82500000D01*
X60000000Y-83250000D02*
X60750000Y-84000000D01*
X62250000Y-83250000D02*
X60000000Y-83250000D01*
X32000000Y-100750000D02*
X31250000Y-101500000D01*
X32000000Y-100750000D02*
X31250000Y-100000000D01*
X29750000Y-100750000D02*
X32000000Y-100750000D01*
D12*
X40000000Y-91200000D03*
X37800000Y-91200000D03*
X40000000Y-93000000D03*
X37800000Y-93000000D03*
D13*
X41250000Y-91100000D03*
X41250000Y-88900000D03*
X41250000Y-95300000D03*
X41250000Y-93100000D03*
D12*
X44750000Y-91200000D03*
X42550000Y-91200000D03*
X44750000Y-93000000D03*
X42550000Y-93000000D03*
D13*
X46000000Y-91100000D03*
X46000000Y-88900000D03*
X46000000Y-95300000D03*
X46000000Y-93100000D03*
D12*
X49450000Y-91200000D03*
X47250000Y-91200000D03*
X49450000Y-93000000D03*
X47250000Y-93000000D03*
D13*
X50750000Y-91100000D03*
X50750000Y-88900000D03*
X50750000Y-95300000D03*
X50750000Y-93100000D03*
D14*
X56250000Y-95250000D03*
D15*
X56250000Y-82900000D03*
D14*
X56250000Y-88750000D03*
D15*
X56250000Y-101100000D03*
D16*
X55100000Y-102250000D03*
D17*
X49250000Y-102250000D03*
X49250000Y-81750000D03*
D16*
X55000000Y-81750000D03*
D17*
X42750000Y-81750000D03*
X42750000Y-102250000D03*
D16*
X36900000Y-102250000D03*
X36900000Y-81750000D03*
D15*
X35750000Y-82900000D03*
D14*
X35750000Y-88750000D03*
X35750000Y-95250000D03*
D15*
X35750000Y-101100000D03*
D12*
X54150000Y-91200000D03*
X51950000Y-91200000D03*
X54150000Y-93000000D03*
X51950000Y-93000000D03*
D18*
X50150000Y-85000000D03*
X52850000Y-85000000D03*
X46650000Y-85000000D03*
X49350000Y-85000000D03*
X43150000Y-85000000D03*
X45850000Y-85000000D03*
X39650000Y-85000000D03*
X42350000Y-85000000D03*
X50150000Y-99000000D03*
X52850000Y-99000000D03*
X46800000Y-99000000D03*
X49500000Y-99000000D03*
X43300000Y-99000000D03*
X46000000Y-99000000D03*
X39650000Y-99000000D03*
X42350000Y-99000000D03*
D19*
X30400000Y-92000000D03*
D20*
X30400000Y-96382500D03*
X30400000Y-87617500D03*
D19*
X61600000Y-92100000D03*
D20*
X61600000Y-87717500D03*
X61600000Y-96482500D03*
M02*
